<svg id="Component_21_1" data-name="Component 21 – 1" xmlns="http://www.w3.org/2000/svg" width="32" height="32" viewBox="0 0 32 32">
  <path id="Path_5159" data-name="Path 5159" d="M31.712,44.242a1.219,1.219,0,0,0,1.75,0l8.614-8.614a1.26,1.26,0,0,0,0-1.75,1.229,1.229,0,0,0-1.75,0l-7.739,7.739-3.634-3.634a1.237,1.237,0,1,0-1.75,1.75Z" transform="translate(-18.657 -23.077)" fill="#158e8d"/>
  <path id="Path_5160" data-name="Path 5160" d="M33.221,2.5H3.745A1.242,1.242,0,0,0,2.5,3.745v29.51A1.242,1.242,0,0,0,3.745,34.5h29.51A1.242,1.242,0,0,0,34.5,33.255V3.745A1.271,1.271,0,0,0,33.221,2.5ZM32.01,32.01H4.956V4.956H32.01V32.01Z" transform="translate(-2.5 -2.5)" fill="#158e8d"/>
</svg>
