<svg xmlns="http://www.w3.org/2000/svg" width="128" height="100" viewBox="0 0 128 100">
  <path id="Path_6081" data-name="Path 6081" d="M13.473,972.363a1.723,1.723,0,0,0-1.316,1.615c-.147,38.335-.158,60.049-.158,96.715a1.741,1.741,0,0,0,1.684,1.667H131.615a1.743,1.743,0,0,0,1.684-1.458l6.683-43.281a1.747,1.747,0,0,0-1.684-1.927h-5.052l.053-38.333a1.741,1.741,0,0,0-1.684-1.667H52.942l-11.156-12.76a1.715,1.715,0,0,0-1.263-.573H13.473Zm26.26,3.333,11.156,12.76a1.715,1.715,0,0,0,1.263.573h77.779l-.053,36.667H28.84c-.9-.032-1.259.787-1.631,1.25L23.84,1040.28a1.734,1.734,0,0,0,1.2,2.144,1.754,1.754,0,0,0,2.06-1.363l3.052-12.031H136.3l-6.157,40H15.368c.012-34.112,0-68.355,0-93.355,8.342,0,16.857.022,24.365.022Z" transform="translate(-12 -972.36)" fill="#dbdbdb"/>
</svg>
