<svg xmlns="http://www.w3.org/2000/svg" width="85" height="45" viewBox="0 0 85 45"><g><g><g><g><path fill="#007166" d="M68.058 0L44.325 45H61.23L85 0z"/></g><g><path fill="#00ad68" d="M44.106 45h16.946L49.083 22.416H32.137z"/></g><g><path fill="#f6b221" d="M43.117 11.52H26.134l4.539 8.602h16.983z"/></g></g><g><g><g><g><g><path fill="#435363" d="M2.928 14.071h.696c.11 0 .183-.036.256-.11a.332.332 0 0 0 .11-.256v-.842a.332.332 0 0 0-.11-.256.332.332 0 0 0-.256-.11h-.696a.332.332 0 0 0-.256.11.332.332 0 0 0-.11.256v.842c0 .11.037.183.11.256.037.074.146.11.256.11z"/></g><g><path fill="#435363" d="M17.166 21.282c0-.073-.036-.147-.073-.22l-.659-1.683-.146-.403c-.293-.732-.622-1.354-.988-1.83s-.732-.842-1.135-1.098a4.19 4.19 0 0 0-1.318-.55c-.475-.11-.951-.146-1.5-.146-.183 0-.44 0-.732.037-.293.036-.55.073-.769.11a.596.596 0 0 0-.22.11.28.28 0 0 0-.073.182v.66c0 .182.11.256.366.219.073 0 .183 0 .293-.037.11 0 .22 0 .33-.036.11 0 .219 0 .292-.037h.183c.989 0 1.794.183 2.343.586.585.402 1.025.988 1.39 1.793l.367.842.585 1.354H3.88V16.45c0-.073-.037-.146-.073-.22-.037-.072-.11-.072-.183-.072h-.769a.52.52 0 0 0-.22.073.52.52 0 0 0-.073.22v7.027c0 .366-.036.622-.073.842a.716.716 0 0 1-.293.476 1.24 1.24 0 0 1-.549.22c-.22.036-.512.036-.842.036h-.33c-.182 0-.255.073-.255.22v.695c0 .073 0 .146.036.183.037.036.11.073.22.073.073-.037.22-.037.402 0h.33c.622 0 1.098-.073 1.464-.22.366-.146.659-.402.878-.768.11-.22.183-.476.22-.732.037-.293.073-.586.073-.952v-1.025h12.848c.183 0 .292-.036.366-.11.073-.073.11-.146.11-.292v-.586a.313.313 0 0 0 0-.256z"/></g></g><g><g><path fill="#435363" d="M22.657 14.071h.695c.11 0 .183-.036.256-.11a.332.332 0 0 0 .11-.256v-.842a.332.332 0 0 0-.11-.256.332.332 0 0 0-.256-.11h-.695a.332.332 0 0 0-.256.11.332.332 0 0 0-.11.256v.842c0 .11.036.183.11.256.073.074.146.11.256.11z"/></g><g><path fill="#435363" d="M23.718 17.329c0-.256 0-.55-.036-.915 0-.073-.037-.147-.074-.22-.036-.073-.11-.073-.22-.073h-.768a.28.28 0 0 0-.183.073.52.52 0 0 0-.073.22c0 .402.037.805.037 1.134v3.075c0 .256-.037.44-.11.476-.074.036-.293.073-.586.073H21.23c-.183 0-.33 0-.439-.037a1.701 1.701 0 0 1-.33-.11c-.073-.073-.146-.146-.219-.292a1.697 1.697 0 0 1-.073-.513V11.4a.52.52 0 0 0-.073-.22c-.074-.074-.11-.11-.22-.11h-.769c-.073 0-.146.036-.22.11-.073.073-.073.146-.073.22v9.113c0 .403.037.732.147.988.073.257.22.44.403.623.183.146.402.256.658.33.074.036.183.036.293.036.11.036.183.036.33.036H21.925c.183 0 .402 0 .585-.036.183 0 .366-.037.513-.037a.731.731 0 0 0 .33-.073c.109-.037.219-.11.255-.183.037-.073.074-.183.11-.256.037-.257.037-.586.073-1.025v-1.428-.805-.659c-.036-.22-.036-.476-.073-.695z"/></g></g></g><g><g><path fill="#435363" d="M6.881 35.557c0 .073-.036.146-.11.22-.073.072-.146.11-.22.11h-.768c-.073 0-.146-.038-.22-.11-.073-.074-.11-.147-.11-.22v-5.234c0-.403-.036-.733-.11-.989-.072-.256-.182-.476-.329-.622a1.378 1.378 0 0 0-.549-.33 2.433 2.433 0 0 0-.768-.11c-.33 0-.696.074-1.062.184-.366.11-.732.256-1.098.439v6.698c0 .073-.036.147-.11.22-.073.073-.146.11-.22.11H.513c-.073 0-.146-.037-.22-.11-.072-.11-.109-.183-.109-.256v-8.09a.52.52 0 0 1 .073-.22c.073-.072.11-.109.22-.109h.805c.073 0 .146.037.22.11.073.073.073.146.073.22v.292c.44-.256.842-.439 1.244-.549.366-.11.806-.183 1.281-.183.952 0 1.648.293 2.087.842.439.586.659 1.391.659 2.453v5.234h.036z"/></g><g><path fill="#435363" d="M13.69 34.166c-.367.22-.733.366-1.062.476-.33.11-.696.146-1.062.146-.439 0-.805-.11-1.061-.293-.256-.183-.366-.549-.366-1.134v-.183c0-.293.036-.55.11-.733.073-.183.183-.366.366-.475.183-.11.402-.183.732-.257a9.46 9.46 0 0 1 1.17-.073h1.172zm1.39 1.39l-.037-5.526c0-.952-.256-1.684-.732-2.196-.475-.55-1.28-.806-2.379-.806-.549 0-1.025.037-1.39.074-.367.036-.733.11-1.062.146-.22.037-.33.11-.33.293v.549c0 .11 0 .183.074.22.036.036.11.036.183.036h.073c.33 0 .659-.037 1.061-.073.366-.037.842-.037 1.355-.037.622 0 1.061.147 1.317.403.257.256.366.732.366 1.39v.623h-1.17c-.696 0-1.319.037-1.794.146-.476.11-.879.257-1.172.476-.292.22-.512.476-.658.805a3.51 3.51 0 0 0-.183 1.135v.183c0 .513.073.915.22 1.245.146.329.365.622.585.805.256.183.512.33.842.402.329.074.658.11.988.11.476 0 .878-.073 1.28-.22.404-.146.806-.329 1.172-.548v.366c0 .073.037.146.11.22.073.072.146.11.22.11h.732c.073 0 .146-.038.22-.11.072-.074.11-.147.11-.22z"/></g><g><path fill="#435363" d="M18.667 35.776c0 .403-.037.769-.146 1.025a1.92 1.92 0 0 1-.366.659 1.139 1.139 0 0 1-.623.33 3.12 3.12 0 0 1-.841.11h-.44c-.11 0-.256-.037-.439-.037-.183-.037-.293-.11-.293-.257v-.585c0-.147.11-.22.33-.22h.659c.292 0 .512-.073.585-.183.11-.11.147-.403.147-.805v-8.345c0-.074.036-.147.073-.22.036-.073.11-.11.22-.11h.841c.073 0 .147.037.22.11a.52.52 0 0 1 .073.22z"/></g><g><path fill="#435363" d="M22.547 35.557c0 .073-.037.146-.11.22-.073.072-.146.11-.22.11h-.768c-.073 0-.147-.038-.22-.11-.073-.074-.11-.147-.11-.22v-8.09c0-.073.037-.146.11-.22.073-.072.147-.109.22-.109h.768c.074 0 .147.037.22.11.073.073.11.146.11.22z"/></g><g><path fill="#435363" d="M30.819 35.557c0 .073-.037.146-.11.22-.073.072-.146.11-.22.11h-4.758c-.33 0-.585-.074-.732-.257a.897.897 0 0 1-.22-.586v-.293c0-.22.037-.402.074-.549.036-.146.146-.292.293-.475l4.1-5.088c.036-.073.072-.11.072-.147 0-.073-.036-.11-.146-.11h-3.917c-.073 0-.146-.036-.22-.11-.072-.072-.109-.146-.109-.219v-.549c0-.073.037-.146.11-.22.073-.073.146-.11.22-.11h4.648c.33 0 .549.074.695.22.147.147.183.33.183.586v.366c0 .183-.036.33-.073.44a1.4 1.4 0 0 1-.293.402l-4.136 5.197a.28.28 0 0 0-.073.183c0 .074.037.11.11.11h4.173c.073 0 .146.037.22.11.072.073.109.146.109.22v.549z"/></g></g><g><g><g><path fill="#00ad68" d="M17.24 24.356c0-.11.036-.183.11-.256a.332.332 0 0 1 .256-.11h.695c.11 0 .183.037.256.11.073.073.11.147.11.256v.842c0 .073-.037.147-.11.22a.332.332 0 0 1-.256.11h-.695a.332.332 0 0 1-.257-.11c-.073-.073-.11-.147-.11-.22z"/></g><g><path fill="#f6b221" d="M21.156 24.356c0-.11.037-.183.11-.256a.332.332 0 0 1 .256-.11h.696c.11 0 .183.037.256.11.073.073.11.147.11.256v.842c0 .073-.037.147-.11.22a.332.332 0 0 1-.256.11h-.696a.332.332 0 0 1-.256-.11c-.073-.073-.11-.147-.11-.22z"/></g></g><g><g><path fill="#007166" d="M13.36 24.356c0-.11.036-.183.11-.256a.332.332 0 0 1 .256-.11h.695c.11 0 .183.037.256.11.074.073.11.147.11.256v.842c0 .073-.036.147-.11.22a.332.332 0 0 1-.256.11h-.695a.332.332 0 0 1-.256-.11c-.074-.073-.11-.147-.11-.22z"/></g></g></g><g><path fill="#435363" d="M22.547 35.557c0 .073-.037.146-.11.22-.073.072-.146.11-.22.11h-.768c-.073 0-.147-.038-.22-.11-.073-.074-.11-.147-.11-.22v-8.09c0-.073.037-.146.11-.22.073-.072.147-.109.22-.109h.768c.074 0 .147.037.22.11.073.073.11.146.11.22z"/></g></g><g><g><path fill="#8e9090" d="M.769 39.144l.183.036c.036 0 .036 0 .036-.036v-.183c0-.037 0-.037-.036-.037H.805c-.036 0-.036 0-.036.037v.183c0 .036 0 .036 0 0zm-.44 0l.22.036c.037 0 .037 0 .037-.036v-.183c0-.037 0-.037-.037-.037H.366c-.037 0-.037 0-.037.037v.183c0 .036 0 .036 0 0zM.256 40.46v-.256c0-.22.22-.44.44-.44s.439.184.439.44v.696h-.44c-.22 0-.439-.22-.439-.44zm1.647.44h-.512v-.696c0-.183-.11-.33-.22-.476a.59.59 0 0 0-.476-.22c-.183 0-.329.11-.475.22a.59.59 0 0 0-.22.476v.256c0 .183.11.33.22.476a.59.59 0 0 0 .475.22H1.94z"/></g><g><path fill="#8e9090" d="M2.709 41.45h-.147c-.036 0-.036 0-.036.036v.183c0 .037 0 .037.036.037h.147c.036 0 .036 0 .036-.037v-.183s0-.036-.036-.036zm-.44 0h-.183c-.036 0-.036 0-.036.036v.183c0 .037 0 .037.036.037h.183c.037 0 .037 0 .037-.037v-.183s0-.036-.037-.036zm.147-.732c0 .11-.037.183-.147.183h-.512v.256h.476c.11 0 .22-.037.293-.11.073.073.22.11.366.11h.11V40.9h-.147c-.073 0-.146 0-.183-.037-.037 0-.037-.037-.037-.073v-1.172c0-.036 0-.036-.036-.036h-.147c-.036 0-.036 0-.036.036v1.099z"/></g><g><path fill="#8e9090" d="M3.843 38.924h-.146c-.037 0-.037 0-.037.037v.183c0 .036 0 .036.037.036h.146c.037 0 .037 0 .037-.036v-.183c0-.037 0-.074-.037-.037zm-.22 1.794c0 .146-.036.183-.146.146h-.549v.256h.513c.256 0 .439-.146.439-.402v-1.099c0-.036 0-.036-.037-.036H3.66c-.036 0-.036 0-.036.036v1.099z"/></g><g><path fill="#8e9090" d="M4.539 40.461v-.256c0-.22.22-.44.439-.44.22 0 .44.184.44.44v.696h-.44c-.22 0-.44-.22-.44-.44zm.915.732c0 .22-.183.403-.403.403h-.33c-.036 0-.036 0-.036.037v.146c0 .037 0 .037.037.037h.33c.182 0 .329-.037.475-.183a.606.606 0 0 0 .183-.44v-.988c0-.183-.11-.33-.22-.476a.59.59 0 0 0-.476-.22c-.183 0-.329.11-.475.22a.59.59 0 0 0-.22.476v.256c0 .183.11.33.22.476a.59.59 0 0 0 .475.22z"/></g><g><path fill="#8e9090" d="M6.369 41.267v-1.648c0-.036 0-.036.036-.036h.147c.036 0 .036 0 .036.036v1.282h.55v.256h-.513v.11c0 .366-.22.549-.549.549h-.183c-.037 0-.037 0-.037-.037v-.146c0-.037 0-.037.037-.037h.146c.22 0 .33-.11.33-.33z"/></g><g><path fill="#8e9090" d="M7.943 39.18h.146c.037 0 .037 0 .037-.036v-.183c0-.037 0-.037-.037-.037h-.146c-.037 0-.037 0-.037.037v.183c0 .036.037.036.037.036zm-.44 0h.183c.037 0 .037 0 .037-.036v-.183c0-.037 0-.037-.037-.037h-.183c-.036 0-.036 0-.036.037v.183c0 .036.036.036.036.036zm.183 1.538c0 .11-.036.183-.146.183h-.586v.256h.55c.11 0 .22-.037.292-.11.073.073.22.11.366.11h.11V40.9h-.146c-.074 0-.147 0-.183-.037-.037 0-.037-.037-.037-.073v-1.172c0-.036 0-.036-.037-.036h-.146c-.037 0-.037 0-.037.036v1.099z"/></g><g><path fill="#8e9090" d="M9.517 38.887h.256c.036 0 .036 0 .036.037v.146c0 .037 0 .037-.036.037h-.256c-.33 0-.55.183-.586.55h.622c.22 0 .403.072.513.219.11.146.22.33.22.549v.366c0 .036 0 .073.036.073.036.037.11.037.183.037h.183v.256h-.147c-.146 0-.292-.037-.366-.11a.464.464 0 0 1-.329.146h-1.61v-.256h1.61c.11 0 .183-.073.183-.183v-.293c0-.292-.183-.512-.476-.512h-.732c-.073 0-.11-.073-.11-.11-.036-.586.257-.952.806-.952z"/></g><g><path fill="#8e9090" d="M11.127 40.718v-1.904c0-.036 0-.036.037-.036h.146c.037 0 .037 0 .037.036v1.904c0 .256-.183.402-.403.402h-.366v-.256h.366c.146.037.183-.037.183-.146z"/></g><g><path fill="#8e9090" d="M12.298 40.571l.183.037c.037 0 .037 0 .037-.037v-1.5c0-.037 0-.037-.037-.037h-.146c-.037 0-.037 0-.037.036v1.501c0 .037 0 .073 0 0zm.074 1.062c0-.074.036-.11.11-.147.036 0 .073.037.11.073v.037c0 .037.036.037.036.037l.073-.037c.037 0 .037-.037.037-.037v-.036c-.037-.11-.11-.147-.22-.147a.25.25 0 0 0-.256.257v.183h-.11c-.037 0-.037 0-.037.036v.073c0 .037 0 .037.037.037h.549c.037 0 .037 0 .037-.037v-.073c0-.036 0-.036-.037-.036h-.33v-.183zm.768-1.062c0 .22-.11.33-.33.33h-.988c-.036 0-.036 0-.036.036v.147c0 .036 0 .036.036.036h.989c.33 0 .549-.183.549-.549v-1.757c0-.036 0-.036-.037-.036h-.146c-.037 0-.037 0-.037.036z"/></g><g><path fill="#8e9090" d="M14.092 41.157h-.147c-.036 0-.036 0-.036-.037v-2.306c0-.036 0-.036.036-.036h.147c.036 0 .036 0 .036.036l-.036 2.343c.036-.037.036 0 0 0z"/></g><g><path fill="#8e9090" d="M16.105 39.144c0 .036.037.036 0 0l.183.036c.037 0 .037 0 .037-.036v-.183c0-.037 0-.037-.037-.037h-.146c-.037 0-.037 0-.037.037v.183zm-.44 0l.22.036c.037 0 .037 0 .037-.036v-.183c0-.037 0-.037-.037-.037h-.183c-.036 0-.036 0-.036.037v.183c0 .036.036.036 0 0zm-.036 1.317v-.256c0-.22.183-.44.44-.44.219 0 .439.184.439.44v.696h-.44a.445.445 0 0 1-.439-.44zm1.647.44h-.512v-.696c0-.183-.073-.33-.22-.476a.59.59 0 0 0-.476-.22c-.183 0-.33.11-.475.22a.59.59 0 0 0-.22.476v.256c0 .183.11.33.22.476a.59.59 0 0 0 .475.22h1.208z"/></g><g><path fill="#8e9090" d="M17.935 41.45c-.037 0-.037 0-.037.036v.183c0 .037 0 .037.037.037h.146c.037 0 .037 0 .037-.037v-.183zm-.476 0c-.036 0-.036 0-.036.036v.183c0 .037 0 .037.036.037h.183c.037 0 .037 0 .037-.037v-.183zm.33-.732c0 .11-.037.183-.183.183h-.513v.256h.513c.11 0 .22-.037.292-.11.074.073.22.11.366.11h.11V40.9h-.146c-.073 0-.147 0-.183-.037-.037 0-.037-.037-.037-.073v-1.172c0-.036 0-.036-.036-.036h-.147c-.036 0-.036 0-.036.036v1.099z"/></g><g><path fill="#8e9090" d="M18.887 40.718v-1.904c0-.036 0-.036.036-.036h.147c.036 0 .036 0 .036.036v1.904c0 .256-.183.402-.402.402h-.366v-.256h.366c.146.037.183-.037.183-.146z"/></g><g><path fill="#8e9090" d="M21.083 40.9h.146v.257h-.11c-.146 0-.256-.037-.329-.147l-.037-.036a.606.606 0 0 1-.439.183h-.695c-.037 0-.037 0-.037-.037v-.146c0-.037 0-.037.037-.037h.695c.22 0 .33-.073.33-.293v-.512a.394.394 0 0 0-.366-.366.731.731 0 0 0-.33.073l-.073.037h-.073l-.073-.11v-.037s0-.036.036-.036l.073-.037a.78.78 0 0 1 .44-.11c.146 0 .292.073.439.183.11.11.183.257.183.403v.622c-.037.073.073.147.183.147z"/></g><g><path fill="#8e9090" d="M22.035 39.876a.464.464 0 0 1 .329-.147c.11 0 .22.037.33.11.11.11.182.183.182.293l-.366.769h-.292l-.367-.77c.037-.072.11-.182.184-.255zm1.464 1.28v-.292h-.696l.33-.695v-.037a.92.92 0 0 0-.257-.44.874.874 0 0 0-.512-.182.723.723 0 0 0-.513.22c-.146.146-.22.255-.256.439v.036l.33.696h-.769v.256h2.27z"/></g><g><path fill="#8e9090" d="M23.901 40.718v-1.904c0-.036 0-.036.037-.036h.146c.037 0 .037 0 .037.036v1.904c0 .256-.183.402-.403.402h-.366v-.256h.366c.11.037.183-.037.183-.146z"/></g><g><path fill="#8e9090" d="M24.853 41.157h-.147c-.036 0-.036 0-.036-.037v-2.306c0-.036 0-.036.036-.036h.147c.036 0 .036 0 .036.036l-.036 2.343c.036-.037.036 0 0 0z"/></g><g><path fill="#8e9090" d="M27.525 39.436l.22.037c.036 0 .036 0 .036-.037v-.183c0-.036 0-.036-.037-.036h-.183c-.036 0-.036 0-.036.036v.183s0 .037 0 0zm-.44 0s0 .037 0 0l.184.037c.036 0 .036 0 .036-.037v-.183c0-.036 0-.036-.036-.036h-.147c-.036 0-.036 0-.036.036v.183zm1.099 1.282c0 .146-.074.183-.183.183h-1.172a.484.484 0 0 1-.475-.476c0-.22.11-.366.256-.44l.073-.036c.037 0 .037 0 .037-.037l-.074-.146c0-.037 0-.037-.036-.037h-.037l-.073.037c-.11.036-.22.146-.293.256a.618.618 0 0 0-.11.366c0 .22.074.366.22.513.146.146.33.22.512.22h1.172c.22 0 .402-.147.402-.403v-1.099c0-.036 0-.036-.036-.036h-.147c-.036 0-.036 0-.036.036v1.099z"/></g><g><path fill="#8e9090" d="M29.355 40.9h.146v.257h-.146c-.256 0-.403-.147-.403-.403v-1.903c0-.037 0-.037.037-.037h.146c.037 0 .037 0 .037.037v1.903c0 .11.073.147.183.147z"/></g><g><path fill="#8e9090" d="M30.673 40.9h-.44v-.695c0-.22.183-.44.44-.44.22 0 .439.184.439.44v.256c0 .22-.183.44-.44.44zm.475-1.17c-.11-.147-.329-.22-.512-.22s-.33.11-.476.22a.59.59 0 0 0-.22.475v.696h-.548v.256h1.244c.22 0 .366-.11.512-.22a.59.59 0 0 0 .22-.476v-.256c0-.183-.073-.33-.22-.476z"/></g><g><path fill="#8e9090" d="M33.345 40.9h.146v.257h-.11c-.146 0-.256-.037-.33-.147l-.036-.036a.606.606 0 0 1-.44.183h-.695c-.036 0-.036 0-.036-.037v-.146c0-.037 0-.037.036-.037h.696c.22 0 .33-.073.33-.293v-.512a.394.394 0 0 0-.367-.366.731.731 0 0 0-.33.073l-.072.037h-.074l-.073-.11v-.037s0-.036.037-.036l.073-.037a.78.78 0 0 1 .44-.11c.146 0 .292.073.439.183.11.11.183.257.183.403v.622c-.037.073.036.147.183.147z"/></g><g><path fill="#8e9090" d="M34.443 39.144l.22.036c.036 0 .036 0 .036-.036v-.183c0-.037 0-.037-.037-.037h-.183c-.036 0-.036 0-.036.037v.183c0 .036 0 .036 0 0zm.658 1.427c0 .22-.073.33-.329.366h-1.39v.256h1.39c.183 0 .33-.073.44-.183.072.147.219.183.402.183h.11v-.256h-.147c-.073 0-.146 0-.183-.036-.036 0-.036-.037-.036-.074v-.512a.745.745 0 0 0-.22-.55.745.745 0 0 0-.549-.219c-.33 0-.549.11-.732.33l-.037.073v.037l.037.036.11.073h.036l.037-.036.037-.073c.11-.184.292-.257.512-.257a.47.47 0 0 1 .366.147c.11.11.146.22.146.366v.33z"/></g><g><path fill="#8e9090" d="M36.2 40.718v-1.904c0-.036 0-.036.036-.036h.147c.036 0 .036 0 .036.036v1.904c0 .256-.183.402-.402.402h-.366v-.256h.366c.146.037.183-.037.183-.146z"/></g><g><path fill="#8e9090" d="M37.188 41.157h-.147c-.036 0-.036 0-.036-.037v-2.306c0-.036 0-.036.036-.036h.147c.036 0 .036 0 .036.036l-.036 2.343c.036-.037.036 0 0 0z"/></g></g><g><g><path fill="#8e9090" d="M.586 42.511h.256v1.794a.658.658 0 0 1-.11.402c-.073.11-.183.147-.366.147H.146c-.036 0-.036 0-.073-.037l.037-.22a.398.398 0 0 0 .183.037c.11 0 .146-.037.183-.11.036-.073.036-.146.036-.256V42.51z"/></g><g><path fill="#8e9090" d="M1.684 43.17v1.172c0 .072.036.109.036.146l.11.11c.037.036.11.036.147.036.073 0 .11 0 .146-.037.037-.036.073-.036.11-.073l.11-.11c.036-.036.036-.073.073-.146V43.17h.256v1.427c0 .074 0 .147.037.22h-.183l-.074-.256a.621.621 0 0 1-.22.22c-.11.073-.182.073-.329.073-.073 0-.183 0-.22-.037-.072-.037-.11-.073-.182-.11a.596.596 0 0 1-.11-.22c-.037-.11-.037-.22-.037-.329v-.988h.33z"/></g><g><path fill="#8e9090" d="M3.807 44.634c-.074 0-.11 0-.183-.037-.074-.036-.11-.11-.147-.146-.036-.037-.036-.11-.073-.183s-.037-.183-.037-.256c0-.22.074-.366.147-.476a.47.47 0 0 1 .366-.147c.073 0 .146.037.183.037.073.037.11.037.146.073v.806a.59.59 0 0 1-.146.256.529.529 0 0 1-.256.073zm.658-2.196H4.21v.695c-.036 0-.11-.036-.146-.036H3.88a.745.745 0 0 0-.55.22c-.109.146-.182.365-.182.658 0 .293.036.513.146.659.11.146.256.22.476.22a.69.69 0 0 0 .293-.074.441.441 0 0 0 .183-.183l.073.22h.183c-.037-.073-.037-.183-.037-.256v-2.123z"/></g><g><path fill="#8e9090" d="M5.051 43.17h.256v1.647h-.256zm-.073-.476c0-.037 0-.11.036-.146.037-.037.074-.037.147-.037s.11 0 .146.037c.037.036.074.073.074.146 0 .037-.037.11-.074.11-.036.036-.073.036-.146.036s-.11 0-.147-.036c0-.037-.036-.073-.036-.11z"/></g><g><path fill="#8e9090" d="M6.991 44.707l-.22.11c-.073.037-.183.037-.292.037-.11 0-.22-.037-.33-.074a.97.97 0 0 1-.22-.183.395.395 0 0 1-.11-.256c0-.073-.036-.22-.036-.366 0-.293.073-.476.183-.659.11-.146.293-.22.513-.22.11 0 .183 0 .256.037a.28.28 0 0 1 .183.074l-.073.22c-.037-.037-.11-.037-.183-.074-.074-.037-.11-.037-.183-.037-.33 0-.476.22-.476.623 0 .073 0 .146.036.256.037.11.037.146.074.183.036.073.073.11.146.146a.464.464 0 0 0 .22.037c.073 0 .146 0 .22-.037.072-.036.109-.036.146-.073z"/></g><g><path fill="#8e9090" d="M7.394 43.17h.256v1.647h-.256zm-.037-.476c0-.037 0-.11.037-.146.036-.037.073-.037.146-.037s.11 0 .146.037c.037.036.074.073.074.146 0 .037-.037.11-.074.11-.036.036-.073.036-.146.036s-.11 0-.146-.036c-.037-.037-.037-.073-.037-.11z"/></g><g><path fill="#8e9090" d="M8.675 44.634c-.074 0-.147-.037-.257-.073a.28.28 0 0 1-.073-.183c0-.073 0-.11.037-.147.037-.036.073-.036.11-.073.073 0 .11-.036.183-.036H9.078v.256s-.037.036-.037.073-.037.037-.073.073c-.037.037-.074.073-.11.073-.073.037-.11.037-.183.037zm-.403-1.171c.037 0 .073-.037.11-.037.073 0 .11-.037.146-.037.074-.036.11-.036.147-.036h.11c.11 0 .22.036.256.073.036.037.073.147.073.256v.183h-.073-.073c-.11 0-.22.037-.33.037a.529.529 0 0 0-.256.073c-.073.037-.146.073-.183.147a.529.529 0 0 0-.073.256c0 .073 0 .11.036.183.037.073.073.073.11.146.037.073.073.073.147.11.036.037.11.037.183.037s.11 0 .183-.037.11-.037.146-.073c.037 0 .073-.073.11-.073.036 0 .036-.037.073-.074l.073.22h.183c0-.037-.036-.11-.036-.183v-.22-.366-.402-.183a.278.278 0 0 0-.074-.147.505.505 0 0 0-.146-.11c-.073-.036-.183-.036-.293-.036-.11 0-.22 0-.33.036-.11.037-.219.074-.292.11z"/></g><g><path fill="#8e9090" d="M10.175 44.414c0 .074 0 .147.037.183.037.037.073.037.11.037h.11c.036 0 .073 0 .11-.037l.036.22c-.037 0-.073.037-.146.037h-.147a.53.53 0 0 1-.256-.074c-.073-.073-.11-.146-.11-.292V42.51h.256z"/></g><g><path fill="#8e9090" d="M11.75 42.511h1.244v.256h-.988v.769h.915v.256h-.915v.805h.988v.257h-1.281l.036-2.343z"/></g><g><path fill="#8e9090" d="M13.762 44.414c0 .074 0 .147.037.183.037.037.073.037.11.037h.11c.036 0 .073 0 .11-.037l.036.22c-.037 0-.073.037-.146.037h-.147c-.11 0-.183-.037-.256-.074-.073-.073-.11-.146-.11-.292V42.51h.256v1.903z"/></g><g><path fill="#8e9090" d="M15.3 43.5c.073.073.11.182.11.365h-.806c.037-.183.073-.292.147-.366a.51.51 0 0 1 .33-.11c.109 0 .182 0 .219.11zm.22.951a.8.8 0 0 1-.184.11c-.073.036-.146.036-.22.036-.11 0-.182 0-.256-.036-.036-.037-.11-.073-.146-.11-.073-.037-.073-.11-.11-.183-.036-.073-.036-.146-.036-.256h1.061c.037-.11.037-.183.037-.256a.73.73 0 0 0-.073-.33c-.037-.073-.11-.11-.147-.183a.201.201 0 0 0-.183-.11c-.073-.036-.146-.036-.22-.036-.256 0-.439.073-.549.22-.11.146-.183.365-.183.658 0 .147 0 .293.037.366.037.073.11.183.146.256.037.074.11.147.22.183.11.037.22.074.33.074.11 0 .22 0 .329-.037.11 0 .183-.073.256-.11z"/></g><g><path fill="#8e9090" d="M17.203 44.707l-.22.11c-.073.037-.183.037-.292.037-.11 0-.22-.037-.33-.074-.11-.036-.146-.11-.22-.183a.395.395 0 0 1-.11-.256c-.036-.11-.036-.22-.036-.366 0-.293.073-.476.183-.659.11-.146.293-.22.513-.22.11 0 .183 0 .256.037a.28.28 0 0 1 .183.074l-.073.22c-.037-.037-.11-.037-.183-.074-.074-.037-.11-.037-.183-.037-.33 0-.476.22-.476.623 0 .073 0 .146.036.256.037.11.037.146.074.183.036.073.073.11.146.146a.464.464 0 0 0 .22.037c.073 0 .146 0 .22-.037.072-.036.109-.036.146-.073z"/></g><g><path fill="#8e9090" d="M17.35 43.17h.256v-.33l.256-.073v.403h.44v.22h-.44v.915c0 .11 0 .183.036.256.037.036.074.073.147.073h.146c.037 0 .073-.037.147-.037l.073.183c-.073.037-.11.037-.183.074-.073.036-.147.036-.22.036-.146 0-.22-.036-.293-.11-.073-.073-.073-.22-.073-.366v-.988h-.256v-.256z"/></g><g><path fill="#8e9090" d="M19.436 43.426c-.073-.037-.147-.037-.183-.037-.11 0-.183.037-.22.074-.073.036-.073.11-.11.183v1.171h-.256V43.17h.183l.037.183c.036-.073.073-.147.146-.183a.464.464 0 0 1 .44-.037z"/></g><g><path fill="#8e9090" d="M19.985 44.012c0-.44.146-.66.439-.623.11 0 .146 0 .22.037.073.037.11.073.146.146.037.037.037.11.073.184a.623.623 0 0 1 .037.256c0 .402-.147.622-.44.622-.11 0-.146 0-.219-.037-.073-.036-.11-.11-.146-.146-.037-.037-.037-.073-.074-.183-.036-.11-.036-.183-.036-.256zm-.293 0c0 .11 0 .293.037.366.036.073.11.183.146.256.037.073.11.146.22.183.11.037.22.073.329.073.256 0 .44-.073.549-.22a1.17 1.17 0 0 0 .183-.658c0-.147 0-.293-.037-.366-.036-.073-.11-.183-.146-.256a.375.375 0 0 0-.22-.184c-.11-.036-.22-.073-.329-.073-.256 0-.44.073-.549.22a1.17 1.17 0 0 0-.183.659z"/></g><g><path fill="#8e9090" d="M22.62 44.817v-.952c0-.183-.036-.293-.073-.402a.308.308 0 0 0-.256-.147c-.11 0-.22.037-.293.11-.073.073-.147.146-.147.22v1.134h-.256v-1.647h.183l.037.183c.036-.073.11-.11.22-.183s.183-.073.329-.073c.073 0 .183 0 .22.037.073.036.11.073.183.11.036.036.073.11.11.22.036.072.036.219.036.329v.988h-.293v.073z"/></g><g><path fill="#8e9090" d="M23.425 43.17h.257v1.647h-.257zm-.073-.476c0-.037 0-.11.037-.146.036-.037.073-.037.146-.037.037 0 .11 0 .147.037.036.036.073.073.073.146 0 .037-.037.11-.073.11-.037.036-.074.036-.147.036-.036 0-.11 0-.146-.036 0-.037-.037-.073-.037-.11z"/></g><g><path fill="#8e9090" d="M25.365 44.707l-.22.11c-.073.037-.182.037-.292.037-.11 0-.22-.037-.33-.074-.11-.036-.146-.11-.22-.183a.395.395 0 0 1-.109-.256c-.037-.11-.037-.22-.037-.366 0-.293.074-.476.183-.659.11-.146.293-.22.513-.22.11 0 .183 0 .256.037a.28.28 0 0 1 .183.074l-.073.22c-.037-.037-.11-.037-.183-.074s-.11-.037-.183-.037c-.33 0-.476.22-.476.623 0 .073 0 .146.037.256.036.11.036.146.073.183.036.073.073.11.146.146a.464.464 0 0 0 .22.037c.073 0 .146 0 .22-.037.073-.036.11-.036.146-.073z"/></g><g><path fill="#8e9090" d="M27.598 44.231c0-.11-.037-.183-.073-.22-.037-.072-.11-.11-.22-.146-.073-.036-.183-.073-.256-.11a.59.59 0 0 1-.256-.146c-.073-.073-.147-.11-.22-.22-.073-.073-.073-.183-.073-.329 0-.183.073-.33.183-.44.11-.109.293-.146.549-.146.146 0 .256 0 .366.037.11.037.183.037.256.073l-.073.256c-.037-.036-.11-.036-.22-.073-.11-.036-.22-.036-.329-.036-.146 0-.256.036-.33.11-.073.073-.11.146-.11.22a.52.52 0 0 0 .074.219c.037.073.11.11.22.146a.59.59 0 0 1 .256.147c.11.036.183.11.256.146.073.073.146.11.22.22.073.073.073.183.073.292 0 .11 0 .183-.037.257-.036.073-.073.146-.146.22a.59.59 0 0 1-.256.146c-.11.036-.22.036-.33.036-.183 0-.293 0-.402-.036-.11-.037-.183-.037-.257-.074l.11-.256c.037.037.11.073.22.073.11.037.22.037.33.037.072 0 .146 0 .219-.037.073-.036.11-.036.183-.073.073-.036.073-.073.11-.11-.037-.036-.037-.11-.037-.183z"/></g><g><path fill="#8e9090" d="M29.135 43.5c.074.073.11.182.11.365h-.805c.036-.183.073-.292.146-.366a.51.51 0 0 1 .33-.11c.11 0 .22 0 .22.11zm.22.951a.8.8 0 0 1-.183.11c-.073.036-.147.036-.22.036-.11 0-.183 0-.256-.036-.037-.037-.11-.073-.146-.11-.074-.037-.074-.11-.11-.183-.037-.073-.037-.146-.037-.256h1.062c.036-.11.036-.183.036-.256a.73.73 0 0 0-.073-.33c-.036-.073-.11-.11-.146-.183a.201.201 0 0 0-.183-.11c-.073-.036-.147-.036-.22-.036-.256 0-.44.073-.549.22-.11.146-.183.365-.183.658 0 .147 0 .293.037.366.036.073.11.183.146.256.037.074.11.147.22.183.11.037.22.074.33.074.109 0 .219 0 .329-.037.11 0 .183-.073.256-.11z"/></g><g><path fill="#8e9090" d="M30.746 43.426c-.073-.037-.147-.037-.183-.037-.11 0-.183.037-.22.074-.073.036-.073.11-.11.183v1.171h-.256V43.17h.183l.037.183c.036-.073.073-.147.146-.183a.464.464 0 0 1 .44-.037z"/></g><g><path fill="#8e9090" d="M31.551 44.158l.11.33.073-.33.366-.952h.293l-.696 1.684h-.11l-.731-1.684h.292z"/></g><g><path fill="#8e9090" d="M32.722 43.17h.257v1.647h-.257zm-.073-.476c0-.037 0-.11.037-.146.036-.037.073-.037.146-.037.037 0 .11 0 .147.037.036.036.073.073.073.146 0 .037-.037.11-.073.11-.037.036-.074.036-.147.036-.036 0-.11 0-.146-.036 0-.037-.037-.073-.037-.11z"/></g><g><path fill="#8e9090" d="M34.662 44.707l-.22.11c-.073.037-.182.037-.292.037-.11 0-.22-.037-.33-.074-.11-.036-.146-.11-.22-.183a.395.395 0 0 1-.109-.256c-.037-.11-.037-.22-.037-.366 0-.293.074-.476.183-.659.11-.146.293-.22.513-.22.11 0 .183 0 .256.037a.28.28 0 0 1 .183.074l-.073.22c-.037-.037-.11-.037-.183-.074s-.11-.037-.183-.037c-.33 0-.476.22-.476.623 0 .073 0 .146.037.256.036.11.036.146.073.183.036.073.073.11.146.146a.464.464 0 0 0 .22.037c.073 0 .146 0 .22-.037.073-.036.11-.036.146-.073z"/></g><g><path fill="#8e9090" d="M35.797 43.5c.073.073.11.182.11.365H35.1c.037-.183.074-.292.147-.366a.511.511 0 0 1 .33-.11c.11 0 .219 0 .219.11zm.256.951a.8.8 0 0 1-.183.11c-.073.036-.146.036-.22.036-.11 0-.183 0-.256-.036-.036-.037-.11-.073-.146-.11-.073-.037-.073-.11-.11-.183-.037-.073-.037-.146-.037-.256h1.062c.037-.11.037-.183.037-.256a.73.73 0 0 0-.074-.33c-.036-.073-.11-.11-.146-.183a.201.201 0 0 0-.183-.11c-.073-.036-.147-.036-.22-.036-.256 0-.439.073-.549.22-.11.146-.183.365-.183.658 0 .147 0 .293.037.366.036.073.11.183.146.256.037.074.11.147.22.183.11.037.22.074.33.074.11 0 .219 0 .329-.037.11 0 .183-.073.256-.11z"/></g><g><path fill="#8e9090" d="M37.334 44.378c0-.073-.036-.11-.073-.147a.506.506 0 0 0-.146-.11c-.074-.036-.11-.036-.183-.073-.074-.036-.147-.036-.183-.073a.286.286 0 0 1-.147-.146.52.52 0 0 1-.073-.22c0-.146.037-.256.146-.33.11-.073.22-.11.366-.11.11 0 .22 0 .293.037.073.037.147.037.22.074l-.073.22c-.037-.037-.11-.037-.183-.074-.074-.037-.147-.037-.22-.037-.11 0-.183 0-.22.037-.036.037-.073.073-.073.183 0 .073.037.11.073.147.037.036.074.073.147.073.073.036.11.036.183.073s.146.073.183.11c.073.036.11.073.146.146.037.073.073.147.073.256 0 .074 0 .147-.036.183a.505.505 0 0 1-.11.147.8.8 0 0 1-.183.11c-.073.036-.146.036-.256.036-.11 0-.22 0-.33-.036-.073-.037-.146-.037-.22-.074l.074-.22a.28.28 0 0 0 .183.074c.073.037.146.037.256.037.11 0 .183-.037.22-.074.146-.036.146-.11.146-.22z"/></g></g></g></g></g></svg>