<svg xmlns="http://www.w3.org/2000/svg" width="94" height="29" viewBox="0 0 94 29"><g><g><g><g><g><g><g><g><g><path fill="#fff" d="M79.143.97l-.596.289-1.818.215-1.727.311-1.073.408-1.132.744-.506.527-.268.48v.311l-1.638.048-2.026.433-2.176 1.318-.863 2.206-.031 18.057 28.66.288-.238-18.417-.537-1.75-1.25-1.152-1.698-.67-1.49-.144-1.163-.097-.417-.36-.654-.599-.418-.6-.923-.526-.835-.433-.865-.215-.982-.12-1.907-.384-.804-.48z"/></g><g><g><path fill="#037c5a" d="M65.257 8.595a3.974 3.974 0 0 1 .874-2.04c.432-.518 1.027-.933 1.724-1.203.878-.35 1.978-.527 3.269-.527h.378l.367-.559c.184-.209.38-.41.59-.603.317-.308.67-.59 1.056-.843a5.281 5.281 0 0 1 1.533-.643c.44-.107.89-.189 1.345-.242.14-.018.294-.032.448-.045.323-.023.643-.064.959-.124a3.038 3.038 0 0 0 1.42-.707c.377.344.872.59 1.422.707.314.062.634.104.957.128.154.014.304.026.448.045.455.054.904.135 1.344.243a5.276 5.276 0 0 1 1.533.643 7.05 7.05 0 0 1 1.055.843c.21.193.406.394.59.603l.369.56h.378c1.29 0 2.39.178 3.268.527 1.01.392 1.795 1.082 2.197 1.927.207.422.342.865.402 1.316.013.09.024.18.03.24v16.857H90.68v-1.31h-3.784v-1.34H71.536v1.34h-3.784v1.31h-2.527V8.883c.008-.092.018-.188.032-.288zm28.659.213a4.807 4.807 0 0 0-.493-1.768c-.472-.976-1.381-1.772-2.546-2.23-.965-.385-2.154-.58-3.533-.584l-.177-.269-.022-.03a8.557 8.557 0 0 0-.645-.673 7.765 7.765 0 0 0-1.157-.922 6.047 6.047 0 0 0-1.752-.737 11.917 11.917 0 0 0-1.92-.308c-.292-.022-.58-.06-.864-.114a2.266 2.266 0 0 1-1.15-.605 1.572 1.572 0 0 1-.14-.167L79.222 0l-.297.401c-.043.058-.09.113-.14.166-.293.297-.696.509-1.15.605a7.557 7.557 0 0 1-.864.113c-.164.015-.325.029-.48.048-.487.058-.97.145-1.441.26a6.036 6.036 0 0 0-1.752.737c-.423.277-.81.586-1.157.924-.233.213-.45.437-.652.669l-.198.297c-1.379 0-2.567.2-3.532.584-.806.316-1.495.798-1.997 1.397-.564.696-.909 1.493-1.005 2.322a4.839 4.839 0 0 0-.036.34V28.9h29.396z"/></g><g><path fill="#f1c250" d="M92.684 21.608l-2.699-9.132-10.833-1.36-10.7 1.36-2.7 9.132-.009.035h12.686c.008.184.138.35.34.435.105.048.22.08.338.096h.223c.119-.016.233-.048.338-.096.201-.085.331-.251.34-.435H92.69z"/></g><g><path fill="none" stroke="#231f20" stroke-miterlimit="50" stroke-width=".3" d="M92.684 21.608v0l-2.699-9.132v0l-10.833-1.36v0l-10.7 1.36v0l-2.7 9.132v0l-.009.035v0h12.686c.008.184.138.35.34.435.105.048.22.08.338.096h.223c.119-.016.233-.048.338-.096.201-.085.331-.251.34-.435H92.69v0z"/></g><g><path fill="#f1c250" d="M89.27 11.958l-.487-.074c-1.778-.272-6.28-1.423-9.564-.907-3.284-.51-7.785.64-9.564.907l-.487.074-3 9.381c2.969.609 5.347.166 6.792-.483 2.727-1.224 6.26.552 6.26.552s3.532-1.776 6.259-.552c1.445.649 3.822 1.092 6.792.483z"/></g><g><path fill="none" stroke="#231f20" stroke-miterlimit="50" stroke-width=".3" d="M89.27 11.958v0l-.487-.074c-1.778-.272-6.28-1.423-9.564-.907-3.284-.51-7.785.64-9.564.907l-.487.074v0l-3 9.381c2.969.609 6.431-.903 7.876-1.55 2.727-1.225 5.175 1.62 5.175 1.62v0s2.758-2.998 5.485-1.774c1.445.649 4.597 2.313 7.567 1.704z"/></g><g><path fill="#f1c250" d="M88.485 11.404s-5.828-1.393-9.263-.521c-3.435-.873-9.263.521-9.263.521l-3.165 9.712c2.072.603 4.174.143 5.277-.237 4.116-2.005 7.155.461 7.155.461s3.04-2.466 7.155-.46c1.103.379 3.205.838 5.277.236z"/></g><g><path fill="none" stroke="#231f20" stroke-miterlimit="50" stroke-width=".3" d="M88.485 11.404v0s-5.828-1.393-9.263-.521c-3.435-.873-9.263.521-9.263.521v0l-3.165 9.712c2.072.603 4.174-.315 5.277-.695 4.116-2.005 7.155.92 7.155.92v0s3.04-2.925 7.155-.92c1.103.38 3.205 1.297 5.277.695z"/></g></g><g><path fill="#f1c250" d="M70.324 11.343c.827-1.04 3.486-1.527 4.559-1.525 1.345-.055 2.384.38 3.884 1.143 1.164-.31 2.658-1.202 4.692-1.143 1.334.06 3.52.38 4.681 1.525l3.021 9.528c-6.268-1.56-9.745-1.516-11.994.392-1.124-1.526-6.047-2.14-11.244-.392z"/></g><g><path fill="none" stroke="#231f20" stroke-miterlimit="50" stroke-width=".3" d="M88.132 11.292v0s-3.552-3.085-8.904-.335c-5.353-2.747-8.904.335-8.904.335v0l-3.099 9.505c1.806.954 4.477-.162 4.478-.205 4.388-2.225 7.529.671 7.529.671v0s3.138-2.9 7.529-.67c0 .04 2.67 1.156 4.477.204z"/></g><g><path fill="none" stroke="#010101" stroke-linejoin="round" stroke-miterlimit="50" stroke-width=".3" d="M79.232 21.263v-9.92"/></g><g><g><path fill="#fff" d="M79.41 24.054c-.18.04-.38.11-.582.08-.02-.083.024-.166.127-.239.152.04.454.06.454.16m-.156-.565c-.428.18-.581.457-.633.724.022.038.085.07.172.09a.869.869 0 0 0 .286.01c.201-.03.455-.09.48-.18.135-.166-.042-.347-.427-.437z"/></g><g><path fill="#fff" d="M77.24 27.284c.201-.043.414-.027.602.044l-.328.125zm1.432-2.857l-.12.286c.12.707.14 1.459.218 2.184-.055.305.208.743-.219.895-.262.053-.613.027-.755-.143.241-.144.668-.107.68-.44-.439-.357-1.216-.304-1.775-.179-.262 0-.28.25-.362.394l.253-.045c.23 0 .394.114.561.241a1.526 1.526 0 0 1-.777.206.359.359 0 0 1-.28-.197c-.231-.74-.231-1.61-.86-2.179l-.055.242c.187.51.527.985.504 1.547-.481.528-1.15.932-1.94.91-.137-.04-.223-.15-.207-.268.383-.25.942-.493 1.051-.903.22-.922-.066-1.852-.055-2.774.055.044.099.107.165.114a2.515 2.515 0 0 0-.34-.787l-.11.213c.099 1.048.176 2.16.23 3.232a2.88 2.88 0 0 1-.898.536c.05-.096.076-.2.076-.304-.11.134-.066.349-.273.438-.421.171-.932.322-1.414.171-.308-.128-.493-.392-.471-.672-.021-.305.186-.528.28-.788-.022.046-.087.134-.175.114-.164-.197.043-.384.066-.582-.13.215-.329.51-.11.751a1.25 1.25 0 0 0-.154.663c0 .341.132.662.515.841.515.197 1.051-.009 1.48-.205l.065.321c.07.13.221.217.395.228.81-.072 1.643-.555 1.928-1.19.087.259.044.554.28.76.482.26.931-.072 1.326-.25.28.206.592.384 1.007.341.263-.026.395-.268.482-.438.252-.841-.055-1.736-.044-2.615l.187.09a2.307 2.307 0 0 0-.355-.76z"/></g><g><path fill="#fff" d="M79.826 23.534c-.099.028-.076.114-.121.17l.14-.028c.164.144-.164.287-.208.403.213-.098.349-.277.361-.474-.022-.064-.098-.072-.175-.072"/></g><g><path fill="#fff" d="M75.476 23.696c0-.063-.077-.063-.132-.081-.098.021-.163.097-.153.18l.14-.028c.121.153-.164.296-.218.403.214-.097.35-.276.36-.474"/></g><g><path fill="#fff" d="M80.999 23.904c.022-.054.153-.08.153.009v.054c-.055.027-.11-.027-.153-.063m.142.275l.14.072c.011-.055.098-.1.043-.162-.207-.063.012-.197-.066-.322-.054-.17-.24-.009-.328.055-.153.114 0 .277.132.34-.306.252-.68.35-1.008.556a2.068 2.068 0 0 0 1.085-.537"/></g><g><path fill="#fff" d="M82.116 25.404l-.066.135c.319-.072.613-.228.92-.278.046.778.165 1.557.141 2.335.406-.715.087-1.61.098-2.38l1.512-.492.043-.108c-.526.179-1.03.278-1.556.455a1.566 1.566 0 0 1-.066-.59c.066.018.12.114.187.1a2.61 2.61 0 0 0-.362-.77l-.131.304c.088.338.12.684.098 1.03z"/></g><g><path fill="#fff" d="M72.957 24.456c.015.058.08.097.153.09.12-.053.12-.17.153-.26l-.153.115c-.22-.17.022-.385.034-.581-.121.187-.242.402-.187.635"/></g><g><path fill="#fff" d="M76.988 24.412c.022.088.01.215.164.197.132-.045.12-.17.153-.26-.055.045-.066.125-.153.114-.185-.178-.011-.393.043-.582a1.078 1.078 0 0 0-.207.529"/></g><g><path fill="#fff" d="M83.724 24.491a.115.115 0 0 0 .053.085.175.175 0 0 0 .112.03c.11-.054.11-.17.153-.26l-.153.114c-.187-.162-.012-.421.022-.582a.935.935 0 0 0-.187.608"/></g><g><path fill="#fff" d="M79.354 24.34l-.14.322c.14 1.137.25 2.336.28 3.463.122-.201.19-.42.198-.645l-.178-2.46.187.107a3.5 3.5 0 0 0-.351-.788"/></g><g><path fill="#fff" d="M75.973 24.947c-.082.069-.264.112-.462.109h-.128c-.101-.08.053-.168.128-.238.165.036.32.078.462.126zm-.256-.535c-.343.225-.528.481-.537.742.052.07.23.07.357.09.25-.01.467-.07.564-.159.166-.17-.006-.361-.41-.456l.154-.217z"/></g><g><path fill="#fff" d="M86.254 25.3c-.11.075-.328.118-.555.11-.186-.08 0-.17.078-.239.194.02.363.065.477.127m-.186-.546c-.417.218-.638.48-.633.747.027.09.291.09.477.08.331-.032.546-.152.5-.279.043-.13-.136-.258-.45-.319-.023-.09.21-.17.106-.23"/></g><g><path fill="#fff" d="M81.009 24.966a.828.828 0 0 0-.329-.162l-.14.25.35.197.141-.197.329.17a.683.683 0 0 0 .164-.258 2.267 2.267 0 0 0-.351-.188c-.055.062-.087.162-.164.188"/></g><g><path fill="#fff" d="M75.795 25.664c.42-.108.887-.26 1.123-.618.054.037.14.1.207.037.14.113.153.295.229.43.11-.179.1-.412.253-.569l.14.072c.032-.027.032-.063.055-.09-.023-.07-.089-.151-.198-.133-.185.125-.14.367-.253.474-.055-.152-.087-.358-.328-.412-.263.43-.855.569-1.227.814"/></g><g><path fill="#fff" d="M72.563 25.199c.252.018.59-.037.8.062-.242.162-.537.228-.757.394.46-.072.997-.278 1.106-.69-.219-.097-.504-.071-.778-.071-.218-.01-.28.18-.373.305"/></g><g><path fill="#fff" d="M84.547 25.655c.022.044.077.113.153.09.12-.054.12-.17.164-.26-.053.026-.087.114-.175.114-.176-.179.022-.394.043-.581-.11.196-.241.394-.187.636"/></g><g><path fill="#fff" d="M80.787 26.979c-.11-.072-.011-.17.011-.241l.317-.403c.169.097.304.226.395.376-.186.17-.438.312-.723.268zm.973-1.79a3.867 3.867 0 0 1-.603.77l-.36-.306c.043-.053.132-.018.198-.026V25.6a1.777 1.777 0 0 0-.515-.241c-.263.375.35.568.494.858-.208.296-.438.608-.351.994a.228.228 0 0 0 .14.127.308.308 0 0 0 .21-.002c.297-.089.657-.286.669-.59a.89.89 0 0 0-.34-.698c.208-.268.526-.528.46-.859"/></g><g><path fill="#fff" d="M83.865 25.772a.567.567 0 0 0 .14-.26.957.957 0 0 0-.35-.178l-.141.25z"/></g><g><path fill="#fff" d="M76.408 26.21l1.753-.57.032-.088c-.58.17-1.16.322-1.719.519z"/></g><g><path fill="#fff" d="M80.075 26.487c.153-.018.14-.162.176-.26-.055.045-.066.144-.176.114-.153-.18.023-.402.055-.568a.927.927 0 0 0-.185.608c-.011.045.066.125.13.099"/></g><g><path fill="#fff" d="M85.695 26.539c-.14-.044-.421.055-.438-.125.055-.072.185-.044.262-.026a.716.716 0 0 1 .176.125zm.415.36c.012-.33-.12-.653-.481-.832-.187-.053-.351.044-.472.162a.55.55 0 0 0-.12.439c.14.349.777.036.93.349-.449.448-1.008.796-1.664.903-.165-.009-.362-.018-.472-.125.24-.17.57-.33.612-.6.187-.357-.175-.599-.263-.886l.14.028a2.584 2.584 0 0 0-.42-.377c-.22.448.362.752.471 1.145-.196.206-.46.322-.711.465-.11-.286.076-.568.098-.814-.145.285-.23.587-.251.895-.27.137-.572.226-.887.26a.615.615 0 0 1-.421-.171c.23-.144.471-.322.525-.546.186-.357-.186-.6-.274-.886l.14.027a2.165 2.165 0 0 0-.42-.376c-.23.42.28.716.448 1.075v.099c-.163.142-.356.26-.57.349-.02-.278.11-.52.133-.743a1.983 1.983 0 0 0-.253.832c-.406.206-.964.484-1.425.206-.372-.277-.087-.733-.054-1.038a1.477 1.477 0 0 0-.14.295c-.11.376-.187.876.25 1.146.516.161 1.008-.1 1.436-.322.054.114.14.215.253.296.46.214.953-.046 1.358-.228a.83.83 0 0 0 .308.277c.438.152.842-.044 1.183-.233.394-.285 1.04-.59 1.019-1.073z"/></g><g><path fill="#fff" d="M73.44 26.828c.022.071.054.161.175.134.095-.06.147-.153.14-.25-.054.036-.065.125-.152.113-.197-.18.01-.393.043-.582a.925.925 0 0 0-.208.582"/></g><g><path fill="#fff" d="M72.563 27.269c.01.044.065.114.153.09.12-.055.12-.17.152-.26-.043.027-.077.114-.164.114-.175-.178.012-.393.044-.582-.12.188-.242.403-.187.636"/></g><g><path fill="#fff" d="M75.304 26.72c.01-.072-.087-.107-.175-.09-.076.034-.122.1-.12.17l.14-.027c.12.144-.12.269-.219.385.203-.09.341-.253.372-.44"/></g><g><path fill="#fff" d="M85.194 28.465l1.48-.869v-.143l-1.48.895z"/></g><g><path fill="#fff" d="M80.067 27.982c-.08.031-.127.098-.12.17l.13-.027c.186.143-.164.277-.197.403a.638.638 0 0 0 .36-.44c.012-.08-.076-.124-.174-.106"/></g><g><path fill="#231f20" d="M73.198 8.291v-.04a.161.161 0 0 1 .12-.034.144.144 0 0 1 .103.057.389.389 0 0 1-.217.019m1.102-.432l-.172.09-.165-.078a.76.76 0 0 1 .337-.012m-3.004.649c-.165-.014-.182-.182-.33-.21-.32.132-.384.431-.527.658-.041.063-.121.135-.223.113-.218-.113-.12-.385-.13-.558a.668.668 0 0 0 0 .569c.047.054.097.136.201.127.326-.144.253-.485.528-.682.229-.2.227.186.456.156a.586.586 0 0 0 .348-.114c-.022.132-.074.313.04.43.25.078.41-.148.6-.22.12.267-.338.226-.36.402l.325-.154a.348.348 0 0 0 .12.199.38.38 0 0 0 .29.038c.44-.163.905-.515 1.003-.9l.395-.195c.096 0 .188.09.301.096.292.05.521-.126.687-.293l.028.114c.045.072.147.068.24.068.16-.023.297-.167.388-.25a.226.226 0 0 0 .08.146.328.328 0 0 0 .189.014c.126-.036.165-.14.223-.217.039.064.095.155.199.164.11 0 .214-.043.28-.114a.474.474 0 0 0 .211.408c.274.032.28-.227.378-.358.068-.1.178-.258.35-.24.096.179.302.303.54.328.176.019.35.03.526.036l.028-.061v-.114a4.67 4.67 0 0 1-.803-.1c-.125-.08-.14-.234-.302-.267-.303.08-.36.34-.487.534-.039.064-.126.135-.228.103-.155-.081-.165-.245-.14-.39.14-.435-.015-.889-.02-1.333l.018-.014c.028.014.05.064.091.046a1.833 1.833 0 0 0-.187-.39c.017-.028-.016-.073.028-.091.307.222.538.503.673.817.14.282 0 .577-.18.807a.732.732 0 0 0 .28-.43c.094-.557-.227-1.105-.817-1.399-.075.127.01.267-.041.4.01.494.105.993.104 1.506l-.052.068a.4.4 0 0 1-.257.063c-.097-.022-.12-.113-.102-.19h-.017a.73.73 0 0 1-.235.227.208.208 0 0 1-.212-.014c-.057-.045-.033-.104-.016-.159-.127.082-.224.227-.39.263a.347.347 0 0 1-.269-.028c-.05-.045-.017-.1-.017-.154-.108.04-.183.145-.28.212-.155.087-.4.145-.562.054.132-.09.326-.122.355-.281-.227-.123-.561-.078-.8-.015-.164.023-.289.133-.303.267a.377.377 0 0 1 .16-.045.372.372 0 0 1 .257.09l-.314.146c-.052-.059-.091-.132-.177-.163a.227.227 0 0 0-.223.036.321.321 0 0 0-.132.304c.097.127.32.033.452.019v.06c-.253.284-.614.62-1.077.632a.251.251 0 0 1-.16-.113c.16-.091.337-.15.497-.236l.035-.059c-.171.067-.338.15-.504.228h-.039l.011-.173c.173-.15.396-.272.562-.435.052-.113.092-.276-.033-.371-.212-.083-.468-.079-.65-.206.04-.018.102-.013.118-.044a1.007 1.007 0 0 0-.33-.065v.121c.158.205.472.269.746.329.05.023.14.032.149.09-.3.258-.641.481-1.014.666a.176.176 0 0 1-.17-.027c-.07-.177.006-.369.189-.48.016.05-.03.114-.03.149a.448.448 0 0 0 .115-.25c.011-.03 0-.072-.046-.072-.188.105-.32.367-.6.341"/></g><g><path fill="#231f20" d="M79.382 8.078a5.34 5.34 0 0 0 1.15-.228c.016.048.035.095.057.141.034.07.117.115.21.113.091-.002.172-.05.201-.12a.346.346 0 0 0-.045-.377c-.016.041-.035.08-.052.114-.016.073.103.132.023.19a.34.34 0 0 1-.229-.014c-.08-.055-.063-.155-.063-.227a6.228 6.228 0 0 1-1.263.227l-.009.124z"/></g><g><path fill="#231f20" d="M83.181 6.605c.058-.018.069-.077.08-.122-.017.018-.046.054-.08.05-.097-.087 0-.214.013-.29a.439.439 0 0 0-.098.271c-.007.045.031.085.085.091"/></g><g><path fill="#231f20" d="M84.776 6.617c.046-.032.046-.073.063-.114l-.075.046c-.125-.078 0-.2.013-.29a.365.365 0 0 0-.098.299.064.064 0 0 0 .032.047.096.096 0 0 0 .065.012"/></g><g><path fill="#231f20" d="M81.936 6.657c.05-.03.078-.078.075-.128-.017.023-.047.06-.08.055-.091-.091 0-.205.024-.295a.418.418 0 0 0-.11.29c.011.037.034.078.091.078"/></g><g><path fill="#231f20" d="M74.29 6.7c.075-.026.086-.089.104-.145-.03.019-.046.073-.102.069-.064-.091.01-.204.035-.295a.644.644 0 0 0-.11.286c.011.031.011.095.075.086"/></g><g><path fill="#231f20" d="M82.23 7.832l-.006-.003.006-.001m-.172.05l-.16-.114a.722.722 0 0 1 .326.065zm4.598.7v.023a.268.268 0 0 1-.188-.096c.073 0 .143.026.188.073m-5.14-.931h.002l.003-.006m-.063.15l.074-.015c.149-.018.24.078.337.155-.2.068-.421.09-.618.154-.366.03-.487.475-.88.424-.269-.164 0-.413.024-.59a.755.755 0 0 0-.19.417c-.013.123.063.242.195.305.28.077.394-.177.595-.28.297-.18.675-.207 1.013-.306.13.144.342.224.561.214.097-.023.155-.104.201-.167.14-.418-.032-.853-.007-1.28.239.323.553.62.59 1.009-.012.191-.2.35-.395.455v-.284l-.034.068c-.046.127.012.312-.183.362a.494.494 0 0 0 .148-.05c.028.01.017.032.017.046.058.136.09.341.32.354.235-.114.206-.357.44-.485.051-.018.133-.045.178 0 .102.16.245.373.519.355a.352.352 0 0 0 .223-.122c.08-.095.024-.227-.01-.312.229.159.404.473.76.423.126-.027.148-.131.183-.213l.028.122c.129.235.39.405.702.454l.017-.113c-.011-.055-.097-.078-.147-.105-.092-.073-.252-.114-.268-.218l.452-.063a.66.66 0 0 0 .25.241c.067.023.17.05.206-.027.06-.12.026-.257-.086-.35a.472.472 0 0 0-.297-.04 1.488 1.488 0 0 1-.102-.568l.43-.031c.04 0 .063-.041.052-.06l-.486.036a4.046 4.046 0 0 1-.038-.7l.097.074a2.592 2.592 0 0 0-.18-.432c-.029.009-.042.059-.064.09.034.313.021.654.072.967-.104.045-.298-.014-.32.099l.32-.026c.039.186.045.39.09.568l-.315.053c-.099.033-.169.105-.184.19l-.022-.022c-.244-.455-.14-1.024-.22-1.53a1.562 1.562 0 0 0-.14-.48l-.046.113c.1.558.143 1.12.126 1.684 0 .055-.063.09-.12.114a.438.438 0 0 1-.298-.06c-.477-.404-.98-.786-1.51-1.145.394-.177.842-.244 1.291-.32.132 0 .32-.05.389.055-.12.113-.32.212-.338.37.115-.185.44-.262.43-.489-.057-.113-.258-.081-.39-.077-.48.067-.97.125-1.383.329a.414.414 0 0 0-.041.263l.81.646a.851.851 0 0 1 .28.373.372.372 0 0 1-.28.063c-.251-.014-.281-.241-.44-.36-.308-.027-.395.263-.515.417-.033.05-.098.13-.195.103-.147-.041-.17-.173-.188-.282a.964.964 0 0 0 .435-.352c.173-.545-.317-.967-.606-1.412-.074-.069-.067-.181-.16-.228-.035.068-.091.16-.013.228.04.467.094.925.106 1.397 0 .04-.019.086-.075.1A.504.504 0 0 1 82.19 8c.132-.054.337-.04.355-.194a.868.868 0 0 0-.32-.16 1.34 1.34 0 0 0-.707 0c-.023.049-.071.096-.06.144z"/></g><g><path fill="#231f20" d="M75.766 6.563v.06a.256.256 0 0 1-.11-.06c0-.033.126-.073.118 0m-.085.205c-.228.196-.524.309-.76.479.323-.097.609-.26.828-.473l.108.04c0-.04.085-.086.027-.126-.126-.013-.025-.105-.041-.165.052-.197-.22-.08-.263 0-.1.084 0 .198.101.231"/></g><g><path fill="#231f20" d="M85.65 6.655c.052.07.087.147.102.228-.045.025-.067.07-.057.114.017-.014.08-.046.108 0l-.114.035c-.04.185.068.376.062.563a1.025 1.025 0 0 0-.056-.49c.07-.02.143-.031.217-.032.075-.082-.074-.146-.125-.196l.07-.205c.029-.081.085 0 .12.014h.011c.017-.042-.001-.087-.045-.114-.148-.013-.11.145-.161.218-.046-.09-.056-.213-.194-.255l-.057.068c.028.027.067.082.119.06"/></g><g><path fill="#231f20" d="M76.095 6.9c.063-.027.074-.087.091-.135-.03.013-.039.068-.09.059-.08-.087 0-.21.023-.291a.501.501 0 0 0-.098.308c0 .027.03.063.074.059"/></g><g><path fill="#231f20" d="M84.324 6.549c-.302.045-.618.067-.91.13l-.017.058.91-.143z"/></g><g><path fill="#231f20" d="M80.735 6.909l.902-.202.03-.05-.561.113c-.121.055-.332.017-.372.145"/></g><g><path fill="#231f20" d="M74.602 6.833l.057.032a.084.084 0 0 0 .023-.073l-.04-.041c-.154.032-.12.177-.172.267a.38.38 0 0 0-.108-.177c-.03-.01-.075-.037-.097 0-.023.036-.074.071-.011.1.025.016.06.016.085 0a.257.257 0 0 1 .097.214c-.154.153-.389.258-.561.38.152-.052.294-.123.42-.209.213-.127.162-.34.3-.49"/></g><g><path fill="#231f20" d="M71.473 6.98c-.029.019-.052.073-.103.073-.064-.09.012-.2.035-.294-.07.114-.14.258-.065.372.103 0 .103-.096.132-.15"/></g><g><path fill="#231f20" d="M81.278 7.06l.915-.19.017-.045c-.309.05-.606.108-.898.175z"/></g><g><path fill="#231f20" d="M73.797 7.028c0-.044.118-.076.118-.011v.057a.317.317 0 0 1-.11-.044m.126.18l.085.025c.192-.12-.178-.133-.017-.264 0-.044.017-.114-.068-.107-.13.038-.22.128-.235.233.016.057.1.07.142.102-.206.207-.547.327-.75.496.325-.112.613-.277.843-.484"/></g><g><path fill="#231f20" d="M77.111 7.301a.3.3 0 0 0 .086-.135c-.023-.027-.056-.032-.086-.046-.154-.031.028-.104 0-.163l-.177-.087-.087.137.086.04c.14.025 0 .114 0 .164z"/></g><g><path fill="#231f20" d="M72.467 7.074c.03.025.078.029.114.009a.404.404 0 0 1 .108.195c.074-.086.052-.204.115-.294.024-.04.063 0 .091.01.028-.024.023-.05.023-.083a.114.114 0 0 0-.068-.032c-.12.055-.104.178-.14.268-.03 0-.023-.037-.034-.06-.028-.05-.067-.113-.154-.113-.126.227-.43.362-.653.52.25-.08.46-.227.595-.416"/></g><g><path fill="#231f20" d="M70.059 7.85c.148-.071.287-.155.412-.25.207-.13.195-.335.281-.507.006-.01.02-.018.034-.018.015 0 .029.007.035.018.046.023.04-.036.046-.059a.098.098 0 0 0-.057-.045c-.13.059-.108.199-.162.285a.253.253 0 0 0-.102-.164h-.097c0 .037-.073.064-.023.1.023.018.086.028.097 0a.347.347 0 0 1 .107.196c-.177.16-.368.307-.573.443"/></g><g><path fill="#231f20" d="M75.593 7.067c-.07.068.061.167-.052.227-.155.023-.04-.127-.097-.182l-.04.041c.01.05.01.114.022.178 0 .018.033.054.074.045a.16.16 0 0 0 .11-.086l.044.045c.03 0 .07.01.086-.013.104-.087-.017-.181-.022-.272-.064.068 0 .136.028.199-.166.077-.08-.132-.153-.177"/></g><g><path fill="#231f20" d="M71.81 7.05c-.314.126-.606.284-.91.433l-.023.073.887-.444z"/></g><g><path fill="#231f20" d="M87.072 8.763l-.094-1.262.018-.013.091.082a1.77 1.77 0 0 0-.192-.44l-.063.13c.067.594.127 1.211.132 1.8a.515.515 0 0 0 .11-.299"/></g><g><path fill="#231f20" d="M81.122 7.472c.008.033.044.058.086.059.05-.03.078-.078.074-.127-.017.022-.046.063-.085.054-.08-.09 0-.21.024-.285a.43.43 0 0 0-.099.299"/></g><g><path fill="#231f20" d="M86.516 7.546c.048-.025.077-.068.074-.114-.013.027-.044.044-.08.045-.097-.086 0-.209.019-.285a.41.41 0 0 0-.104.285c.01.037.045.066.09.073"/></g><g><path fill="#231f20" d="M84.362 7.365c.028.014 0 .049.05.045.023 0 .063-.013.046-.045-.016-.032-.09-.06-.148-.079-.103-.018-.268-.031-.339.041.075.136.326.182.348.332-.17-.104-.388-.2-.502-.34-.018.195.274.277.434.372a.145.145 0 0 0 .14-.044c.024-.168-.257-.191-.331-.332a.516.516 0 0 1 .297.051"/></g><g><path fill="#231f20" d="M74.864 7.614c0 .036.028.077.086.068a.195.195 0 0 0 .074-.132c-.03.018-.04.064-.087.06-.078-.096 0-.213.03-.295a.491.491 0 0 0-.104.299"/></g><g><path fill="#231f20" d="M83.002 7.448l-.075.123.148.104L83 7.79c.06.044.123.085.188.123a.24.24 0 0 0 .075-.123 1.57 1.57 0 0 0-.14-.1c0-.026.029-.041.039-.064.064-.086-.103-.132-.165-.177"/></g><g><path fill="#231f20" d="M71.233 7.688c-.022.023-.068.054-.04.082.057.045-.017.135.063.171.08 0 .12-.059.149-.1l.04.041c.043.009.086-.008.104-.04.058-.083-.011-.178-.045-.25-.085.081.068.15.012.217-.15.014-.051-.127-.114-.177-.108.05.074.168-.075.227-.148.008-.022-.135-.09-.177"/></g><g><path fill="#231f20" d="M84.885 7.997c0 .045.023.1.097.096.046-.026.072-.07.069-.114l-.07.045c-.118-.077-.016-.204.012-.294a.428.428 0 0 0-.11.262"/></g><g><path fill="#231f20" d="M85.743 8.162c.01.023.046.059.08.059.067-.018.068-.091.074-.114-.017.018-.034.05-.074.046-.114-.091 0-.2.018-.295a.392.392 0 0 0-.098.308"/></g><g><path fill="#231f20" d="M70.561 8.055c.058.014.12.05.166.045.028-.05.08-.09.074-.148l-.171-.055-.074.114-.183-.046-.074.15.17.06c.047-.037.042-.092.092-.114"/></g><g><path fill="#231f20" d="M70.03 8.467c.08-.023.096-.114.097-.15a.129.129 0 0 1-.087.073c-.073-.09 0-.209.036-.299a.55.55 0 0 0-.11.327c0 .022.023.054.063.05"/></g><g><path fill="#231f20" d="M80.65 8.264c.041-.076-.107-.114-.163-.154l-.087.131.147.091c.057.037.069-.045.104-.068"/></g><g><path fill="#231f20" d="M75.875 8.305v-.054l-.092.09c-.348-.064-.457.285-.714.394.14-.018.218-.135.32-.208.11-.16.331-.037.452-.163a.127.127 0 0 0 .14-.022c.012-.037.047-.1 0-.132-.016.022-.04.054-.016.081-.017.023-.058.01-.086.014"/></g><g><path fill="#231f20" d="M76.2 8.55c.003.027.03.047.063.046.068-.018.092-.095.092-.135-.013.032-.047.055-.087.059-.092-.086.018-.196.03-.296a.434.434 0 0 0-.1.327"/></g><g><path fill="#231f20" d="M81.838 8.753a.485.485 0 0 0 .383-.044c-.126 0-.292.036-.389-.032-.016-.137.246-.176.264-.3-.067.024-.16.096-.228.009l.016-.032c.006-.017.026-.028.048-.026.022.002.038.017.038.035.017-.023.04-.036.046-.059.006-.023-.039-.041-.068-.036-.064.036-.15.09-.15.159.02.03.05.055.086.073l-.074.095c-.024.045-.046.127.028.16"/></g><g><path fill="#231f20" d="M76.656 8.666l.916-.326.005-.045-.898.302z"/></g><g><path fill="#231f20" d="M79.81 8.468l-.182-.091-.075.132.183.095.074-.09c.056.031.114.067.171.1l.058-.074c.081-.1-.103-.113-.153-.163z"/></g><g><path fill="#231f20" d="M74.095 8.9a.485.485 0 0 0 .309-.13c-.12.032-.246.104-.383.044 0-.148.27-.208.264-.358l-.08.072a.124.124 0 0 1-.14 0l.01-.046c.024-.027.07-.036.092-.009l.033-.068-.016-.023a.281.281 0 0 0-.19.19c0 .041.046.046.08.064a.373.373 0 0 0-.097.205c.004.02.018.04.04.05a.107.107 0 0 0 .074.009"/></g><g><path fill="#231f20" d="M74.724 8.725c0 .027.022.068.074.059.052-.01.069-.087.093-.136l-.074.064c-.114-.073 0-.208 0-.294a.547.547 0 0 0-.099.308"/></g><g><path fill="#231f20" d="M82.614 8.772c.008.031.041.054.08.055.069-.018.082-.099.075-.114-.017.018-.041.05-.075.045-.113-.082 0-.2.018-.295a.38.38 0 0 0-.098.313"/></g><g><path fill="#231f20" d="M83.684 8.893c.108-.026.186-.103.195-.195a.064.064 0 0 0-.034-.049.097.097 0 0 0-.069-.01c-.031.017-.05.047-.046.078h.017c.027-.01.059-.003.074.018 0 .072-.087.114-.14.162"/></g><g><path fill="#231f20" d="M84.973 9.176c.013.032.05.054.09.055.045-.027.07-.07.065-.114l-.075.044c-.102-.086-.01-.199.019-.29a.353.353 0 0 0-.099.304"/></g><g><path fill="#231f20" d="M86.523 9.152h.017c.08-.027.188-.099.177-.18 0-.046-.057-.064-.108-.064a.088.088 0 0 0-.047.072c.033-.015.076-.007.097.019.017.072-.097.113-.14.153"/></g><g><path fill="#231f20" d="M71.215 9.053c-.017.06-.074-.009-.115-.009-.13-.077-.12.087-.165.132l.182.06.074-.115.172.055c.029-.05.085-.096.074-.149l-.171-.06z"/></g><g><path fill="#231f20" d="M85.87 9.368l.052-.014c.092-.035.148-.112.14-.194-.012-.029-.047-.048-.085-.045-.052 0-.058.048-.052.076a.095.095 0 0 1 .086.023c0 .072-.103.113-.15.158"/></g><g><path fill="#231f20" d="M70.648 9.42c0 .031.028.068.08.054a.206.206 0 0 0 .086-.15c-.03.028-.047.078-.097.07-.069-.1.024-.196.04-.29a.533.533 0 0 0-.109.316"/></g><g><path fill="#231f20" d="M87.03 9.43h.022a.08.08 0 0 1 .074.027c0 .063-.09.103-.148.149.028 0 .039-.01.056-.013.08-.04.165-.104.14-.19a.128.128 0 0 0-.091-.046c-.045 0-.058.04-.058.073"/></g><g><path fill="#010101" d="M88.349 10.362l.001.001-.014.003z"/></g><g><path fill="#037c5a" d="M80.496 3.928c.81-.098 1.355.713 1.355.713-.106-1.299-1.807-1.106-1.807-1.106.431-.276 1.306.073 1.306.073-.333-.414-.947-.62-1.544-.516.108-.166.762-.13.762-.13-.592-.473-1.286 0-1.286 0 .033-.26-.241-.669-.241-.669s-.28.408-.241.669c0 0-.694-.475-1.286 0 0 0 .653-.037.762.13-.597-.104-1.211.102-1.544.516 0 0 .873-.349 1.306-.073 0 0-1.702-.193-1.807 1.106 0 0 .545-.81 1.355-.713 0 0-1.732.398-.903 1.647 0 0-.045-1.035.953-1.27 0 0-1.31.85-.129 1.566 0 0-.244-.805.44-1.172-.27.58-.09 1.234.461 1.664 0 0-.194-.773.421-1.198v1.342c-.008.192-.027.42-.036.588-.02.304-.04.527-.041.537-.03.104-.047.21-.05.317V8.153l-.029.061-.007.017a.227.227 0 0 0-.045.124c0 .042.02.083.055.114l-.06.95a1.83 1.83 0 0 0-.317.406l-.024.043h1.534l-.024-.043a1.816 1.816 0 0 0-.316-.406l-.063-.952a.153.153 0 0 0 .055-.114.227.227 0 0 0-.045-.124l-.016-.034-.02-.043.009-.124v-.079a1.33 1.33 0 0 0-.05-.316c0-.007-.022-.227-.041-.536-.011-.169-.03-.397-.037-.59V5.165c.61.425.421 1.198.421 1.198.551-.43.732-1.085.46-1.664.686.367.441 1.172.441 1.172 1.182-.716-.13-1.566-.13-1.566.998.236.953 1.27.953 1.27.828-1.25-.903-1.647-.903-1.647"/></g><g><path fill="none" stroke="#231f20" stroke-miterlimit="50" stroke-width=".3" d="M80.496 3.928c.81-.098 1.355.713 1.355.713-.106-1.299-1.807-1.106-1.807-1.106.431-.276 1.306.073 1.306.073-.333-.414-.947-.62-1.544-.516.108-.166.762-.13.762-.13-.592-.473-1.286 0-1.286 0 .033-.26-.241-.669-.241-.669v0s-.28.408-.241.669c0 0-.694-.475-1.286 0 0 0 .653-.037.762.13-.597-.104-1.211.102-1.544.516 0 0 .873-.349 1.306-.073 0 0-1.702-.193-1.807 1.106 0 0 .545-.81 1.355-.713 0 0-1.732.398-.903 1.647 0 0-.045-1.035.953-1.27 0 0-1.31.85-.129 1.566 0 0-.244-.805.44-1.172-.27.58-.09 1.234.461 1.664 0 0-.194-.773.421-1.198v1.342c-.008.192-.027.42-.036.588-.02.304-.04.527-.041.537-.03.104-.047.21-.05.317V8.153l-.029.061v0l-.007.017a.227.227 0 0 0-.045.124c0 .042.02.083.055.114l-.06.95a1.83 1.83 0 0 0-.317.406l-.024.043v0h1.534v0l-.024-.043a1.816 1.816 0 0 0-.316-.406l-.063-.952a.153.153 0 0 0 .055-.114.227.227 0 0 0-.045-.124l-.016-.034v0l-.02-.043v0l.009-.124v0-.079a1.33 1.33 0 0 0-.05-.316c0-.007-.022-.227-.041-.536-.011-.169-.03-.397-.037-.59V5.165c.61.425.421 1.198.421 1.198.551-.43.732-1.085.46-1.664.686.367.441 1.172.441 1.172 1.182-.716-.13-1.566-.13-1.566.998.236.953 1.27.953 1.27.825-1.25-.91-1.646-.91-1.646v0z"/></g><g><path fill="#00904e" d="M82.988 9.8c-.257.038-.514.082-.765.138a7.778 7.778 0 0 0-1.746.6 9.043 9.043 0 0 0-.917.513c-.321.203-.627.422-.926.646-.157.117-.313.236-.466.357-.114.088-.227.18-.344.266l-.071.05-.021.014.01.02c.04.095.137.165.256.187h.025l.013-.019a.89.89 0 0 1 .126-.133.507.507 0 0 1 .319-.13c.027 0 .054.002.08.007.154.032.261.145.26.274-.006.13-.103.246-.25.3h-.009l-.03.007a.6.6 0 0 1-.127.013c-.172 0-.469-.06-.842-.395l-.021-.02-.027.016-.08.042c-.158.08-.32.155-.482.227a1.34 1.34 0 0 1-.562.142c-.304 0-.467-.157-.467-.32a.25.25 0 0 1 .015-.086c.032-.12.168-.205.32-.198.063 0 .125.01.183.029a.414.414 0 0 1 .088.054l.045.037.008.007h.012l.067.013h.027c.066 0 .233-.032.6-.296l.013-.01v-.004a.244.244 0 0 0-.104-.205l-.02-.014-.022.01-.03.011a.868.868 0 0 1-.32.064.392.392 0 0 1-.254-.076.255.255 0 0 1-.106-.203.288.288 0 0 1 .128-.221.44.44 0 0 1 .286-.077h.046c.154.017.284.102.338.22.073.113.116.262.168.366l.02.042.04-.032.06-.048c2.903-2.593 6.234-2.285 6.316-2.283-.076.007-.153.01-.23.019-.21.02-.421.045-.632.075"/></g><g><path fill="none" stroke="#010101" stroke-linejoin="round" stroke-miterlimit="50" stroke-width=".2" d="M82.988 9.8c-.257.038-.514.082-.765.138a7.778 7.778 0 0 0-1.746.6 9.043 9.043 0 0 0-.917.513c-.321.203-.627.422-.926.646-.157.117-.313.236-.466.357-.114.088-.227.18-.344.266l-.071.05v0l-.021.014v0l.01.02c.04.095.137.165.256.187h.025v0l.013-.019a.89.89 0 0 1 .126-.133.507.507 0 0 1 .319-.13c.027 0 .054.002.08.007.154.032.261.145.26.274-.006.13-.103.246-.25.3h-.009v0l-.03.007a.6.6 0 0 1-.127.013c-.172 0-.469-.06-.842-.395l-.021-.02v0l-.027.016v0l-.08.042c-.158.08-.32.155-.482.227a1.34 1.34 0 0 1-.562.142c-.304 0-.467-.157-.467-.32a.25.25 0 0 1 .015-.086c.032-.12.168-.205.32-.198.063 0 .125.01.183.029a.414.414 0 0 1 .088.054l.045.037v0l.008.007v0h.012v0l.067.013v0h.027c.066 0 .233-.032.6-.296l.013-.01v0-.004a.244.244 0 0 0-.104-.205l-.02-.014v0l-.022.01v0l-.03.011a.868.868 0 0 1-.32.064.392.392 0 0 1-.254-.076.255.255 0 0 1-.106-.203.288.288 0 0 1 .128-.221.44.44 0 0 1 .286-.077h.046c.154.017.284.102.338.22.073.113.116.262.168.366l.02.042v0l.04-.032v0l.06-.048c2.903-2.593 6.234-2.285 6.316-2.283-.076.007-.153.01-.23.019-.21.025-.42.05-.63.08z"/></g><g><path fill="#037c5a" d="M75.097 9.8c.257.038.514.082.765.138a7.733 7.733 0 0 1 1.746.6c.319.154.625.326.917.513.32.203.627.422.926.646.157.117.312.236.466.357.113.088.227.18.344.266l.071.05.021.014-.01.02a.339.339 0 0 1-.255.187h-.027l-.012-.019a.89.89 0 0 0-.126-.133.507.507 0 0 0-.32-.13.381.381 0 0 0-.08.007c-.153.032-.26.145-.259.274.006.13.103.246.25.3h.008l.033.007a.59.59 0 0 0 .126.013c.173 0 .469-.06.842-.395l.023-.02.026.016c.027.014.054.03.08.042.159.08.32.155.483.227.169.086.362.135.561.142.305 0 .468-.157.468-.32a.239.239 0 0 0-.016-.086c-.031-.12-.167-.205-.32-.198a.575.575 0 0 0-.182.029.414.414 0 0 0-.089.054l-.044.037-.009.007h-.011l-.067.013h-.027c-.066 0-.233-.032-.6-.296l-.013-.01v-.004a.242.242 0 0 1 .103-.205l.02-.014.024.01.028.011a.868.868 0 0 0 .32.064.392.392 0 0 0 .254-.076.255.255 0 0 0 .107-.203.288.288 0 0 0-.128-.221.44.44 0 0 0-.286-.077h-.047c-.154.017-.284.102-.338.22-.073.113-.115.262-.166.366l-.02.042-.04-.032-.06-.048C77.654 9.392 74.323 9.7 74.24 9.702c.076.007.153.01.23.019.21.02.421.045.632.075"/></g><g><path fill="none" stroke="#010101" stroke-linejoin="round" stroke-miterlimit="50" stroke-width=".2" d="M75.097 9.8c.257.038.514.082.765.138a7.733 7.733 0 0 1 1.746.6c.319.154.625.326.917.513.32.203.627.422.926.646.157.117.312.236.466.357.113.088.227.18.344.266l.071.05v0l.021.014v0l-.01.02a.339.339 0 0 1-.255.187h-.027v0l-.012-.019a.89.89 0 0 0-.126-.133.507.507 0 0 0-.32-.13.381.381 0 0 0-.08.007c-.153.032-.26.145-.259.274.006.13.103.246.25.3h.008v0l.033.007a.59.59 0 0 0 .126.013c.173 0 .469-.06.842-.395l.023-.02v0l.026.016c.027.014.054.03.08.042.159.08.32.155.483.227.169.086.362.135.561.142.305 0 .468-.157.468-.32a.239.239 0 0 0-.016-.086c-.031-.12-.167-.205-.32-.198a.575.575 0 0 0-.182.029.414.414 0 0 0-.089.054l-.044.037v0l-.009.007v0h-.011v0l-.067.013v0h-.027c-.066 0-.233-.032-.6-.296l-.013-.01v0-.004a.242.242 0 0 1 .103-.205l.02-.014v0l.024.01v0l.028.011a.868.868 0 0 0 .32.064.392.392 0 0 0 .254-.076.255.255 0 0 0 .107-.203.288.288 0 0 0-.128-.221.44.44 0 0 0-.286-.077h-.047c-.154.017-.284.102-.338.22-.073.113-.115.262-.166.366l-.02.042v0l-.04-.032v0l-.06-.048C77.654 9.392 74.323 9.7 74.24 9.702c.076.007.153.01.23.019.205.025.411.05.626.08z"/></g><g><path fill="#00904e" d="M87.3 16.708c-.228.351-.527.669-.884.94-.704.547-1.644.849-2.619.842-1.005.016-1.97-.322-2.644-.927a3.397 3.397 0 0 1-.69-.848v-.007z"/></g><g><path fill="none" stroke="#010101" stroke-linejoin="round" stroke-miterlimit="50" stroke-width=".3" d="M87.3 16.708c-.228.351-.527.669-.884.94-.704.547-1.644.849-2.619.842-1.005.016-1.97-.322-2.644-.927a3.397 3.397 0 0 1-.69-.848v-.007 0z"/></g><g><path fill="none" stroke="#010101" stroke-linejoin="round" stroke-miterlimit="50" stroke-width=".3" d="M80.45 16.63v0h6.857v0L83.88 9.714v0z"/></g><g><path fill="#00904e" d="M77.657 16.708c-.228.351-.527.669-.884.94-.704.547-1.644.849-2.619.842-1.004.015-1.967-.323-2.64-.927a3.392 3.392 0 0 1-.69-.848v-.007z"/></g><g><path fill="none" stroke="#010101" stroke-linejoin="round" stroke-miterlimit="50" stroke-width=".3" d="M77.657 16.708c-.228.351-.527.669-.884.94-.704.547-1.644.849-2.619.842-1.004.015-1.967-.323-2.64-.927a3.392 3.392 0 0 1-.69-.848v-.007 0z"/></g><g><path fill="none" stroke="#010101" stroke-linejoin="round" stroke-miterlimit="50" stroke-width=".3" d="M74.235 9.713v0l-3.428 6.918v0h6.857v0z"/></g></g></g><g><g><path fill="#037c5a" d="M31.553 23.065c.39.01.435.434.308.76-.149.38-.4.714-.704.948-.1.077-.22.237-.372.25V25c.208-.356.595-.596.776-1.003.08-.176.035-.448-.234-.4-.118.022-.169.108-.275.134a4.866 4.866 0 0 1-.008-.024c-.024-.06.019-.137.032-.188.092-.334.162-.341.477-.454zm-9.178 0c.422.011.402.472.291.791-.145.418-.65 1.01-1.051 1.176l-.016-.008c.026-.132.183-.221.258-.314.176-.214.406-.439.518-.705.075-.177.04-.46-.235-.407-.114.022-.165.107-.267.133-.09-.171.153-.536.267-.603.069-.04.149-.032.235-.063zm25.239 1.912c.019-.122.15-.193.218-.274.186-.228.426-.458.55-.737.081-.183.047-.47-.235-.415-.114.022-.163.108-.266.133l-.017-.016c-.005-.272.148-.54.348-.619.2-.078.428-.005.493.141.242.544-.422 1.3-.695 1.513-.108.083-.236.255-.396.274zM15.186 22.97c.454-.01.484.399.364.76-.131.393-.438.748-.744.98-.093.07-.195.199-.332.219v-.024c.054-.101.149-.166.219-.25.192-.234.445-.476.566-.768.075-.184.007-.44-.26-.384-.108.023-.151.11-.258.125l-.016-.016c.007-.369.189-.52.46-.642zm43.191-.024c.444-.008.487.43.348.776-.193.479-.588.96-1.043 1.183a4.735 4.735 0 0 1-.033-.015c.061-.117.17-.193.251-.29.187-.228.401-.453.534-.729.089-.185.009-.455-.26-.392-.104.025-.15.114-.258.126v-.016c-.067-.168.168-.512.259-.572l.202-.07zm-36.034-4.45c-.136.05-.328.003-.445.062v.024l.695.517.291.274.817-.415.38-.172a54.495 54.495 0 0 0-.008-.04c-.455-.211-1.032-.249-1.73-.25zm-15.68-.682c.48-.003.67.694.347.987l-.04-.007c-.125-.061-.225-.345-.413-.298-.222.034-.285.375-.347.572-.168.527-.2 1.471-.558 1.802-.046-.002-.048-.008-.073-.024l-.057-.376a6.419 6.419 0 0 0-.364-.963c-.06-.136-.123-.346-.258-.408l-.04-.008-.138.118c-.208.06-.562-.3-.59-.423-.031-.133.293-.615.371-.65.205-.052.388.113.494.195.303.235.46.64.598 1.035l.13.556h.024l.008-.024.089-.462c.16-.652.244-1.362.817-1.622zm49.7-.768c-.158.058-.297.037-.412.126-.21.16-.037.462.138.532.312.127.994.104 1.39.126l.016-.024c-.154-.36-.592-.763-1.132-.76zm-20.03-.086c-.435.568-.843 1.164-1.181 1.834-.093.184-.302.576-.13.807.152.202.615.23.923.14.553-.159.97-.43 1.366-.736.138-.106.362-.248.388-.454-.317-.492-.55-.848-.962-1.246-.098-.095-.25-.323-.404-.345zm16.74-.392l.015.008c-.004.213-.122.405-.178.588-.105.345-.182.68-.25 1.065-.07.39.127.944.485.674.143-.107.18-.31.307-.43l.024.023c.042.104-.054.307-.08.4-.09.312-.356.963-.817.626-.2-.146-.271-.61-.21-.971.11-.656.257-1.138.501-1.63.06-.121.109-.263.202-.353zm-51.958-.776c.034.043-.027.192-.048.251-.06.17-.268.778-.025.894l.04.015c.119-.042.16-.13.219-.227h.032v.047c-.048.166-.234.751-.485.415-.234-.314.111-1.234.267-1.395zm45.383-.211l.024.008c.021.169-.116.385-.162.54-.118.396-.21.8-.275 1.207-.044.28.084.722.38.643.211-.057.31-.333.42-.494h.025l.008.016c.043.29-.257.934-.437 1.05-.154.099-.417.06-.517-.063-.174-.214-.212-.688-.146-1.058.13-.719.326-1.345.68-1.85zm-6.987-.024c.155.039.295.288.388.4.327.396.77.699 1.06 1.128a7.44 7.44 0 0 1-.033.063c-.143-.001-.515-.114-.558-.078l.291.509.526.995c.18.337.406.8.315 1.364-.112.697-.28 1.256-.598 1.747-.233.359-.616.65-.955.909a21.488 21.488 0 0 1-2.555 1.685c-.545.307-1.72.837-2.636.689-1.144-.184-1.63-.95-1.893-1.982-.278-1.093.082-2.492.356-3.33.105-.32.21-.645.38-.902l.04-.008.025.032c.005.254-.09.464-.154.666-.144.461-.198.918-.299 1.426-.056.287-.099.72-.024 1.026.091.375.238.685.437.956.207.284.503.543.881.659.592.18 1.346-.007 1.836-.157 1.218-.374 2.23-1.064 3.178-1.716.397-.274.752-.572 1.124-.862l.331-.298c.273-.34-.179-.859-.34-1.12-.338-.551-.614-1.135-.953-1.693-.14-.227-.363-.5-.429-.776-.054-.222.17-1.248.259-1.332zm-26.42-.415l.033.016-.235.744c-.102.318-.146.635-.21.995-.047.263.09.72.372.65.21-.051.321-.327.42-.493l.041.008c.005.334-.218.888-.412 1.034-.179.133-.465.073-.575-.078-.143-.198-.184-.669-.12-1.003a5.718 5.718 0 0 1 .686-1.873zm6.292-.674c.04.046-.02.18-.04.235-.058.166-.282.812-.025.91l.065.007c.09-.045.142-.13.186-.22h.024l.008.009c.002.21-.225.73-.46.478-.285-.306.096-1.225.242-1.419zm13.084-.047c.046.035-.122.54-.153.627-.129.36-.393 1.16-.195 1.599.236.52.615-.134.728-.314l.04.008c.003.319-.218.887-.404 1.026-.183.139-.475.087-.59-.078-.14-.2-.177-.68-.113-1.01.14-.721.329-1.35.687-1.858zm-9.938-.039c.057.045-.05.287-.073.36-.074.227-.442 1.282.04 1.317.182-.103.18-.235.316-.345l.024.04c-.074.269-.124.74-.469.736a.275.275 0 0 1-.218-.102c-.113-.147-.134-.491-.09-.736.089-.485.229-.928.47-1.27zM5.61 13.968l.033.015-.154.478c-.09.28-.155.564-.21.87-.05.28.008.647.242.682.233.034.36-.433.453-.408 0 .314-.167.737-.364.878-.163.117-.402.03-.485-.094-.118-.177-.14-.582-.089-.862a4.7 4.7 0 0 1 .574-1.56zm43.54-.165l.04.008c.146.068.272.287.372.408.226.274.504.52.76.767.079.077.327.274.258.4-.205.026-.372-.08-.566-.094l-.008.024c.243.614.527 1.184.752 1.833.092.265.101.557.154.862.037.213-.022.448-.057.611l-.008.274-.113.4c-.242.758-.589 2.125-.243 2.978.1.244.252.466.445.65.23.22.533.373.898.462.714.175 1.48-.017 2.005-.227 1.014-.405 1.836-.989 2.645-1.59l.647-.55c.358-.278.71-.62.986-.979.064-.082.252-.238.219-.391-.096-.434-.695-.448-1.173-.525l-.574-.008c-.723-.115-1.295-.207-1.456-.854-.239-.961.498-1.92 1.02-2.273.194-.132.52-.29.88-.203.526.127.863.532 1.117.924.23.357.409.742.533 1.144.263.844.193 1.971-.121 2.704-.215.501-.6.795-.922 1.183a4.833 4.833 0 0 1-.72.69l-.525.47c-.422.324-.83.65-1.278.955-.769.525-2.242 1.412-3.582.901-.82-.312-1.237-.98-1.48-1.857-.053-.19-.029-.377-.065-.595a2.786 2.786 0 0 1 .008-.815c.063-.372.086-.745.178-1.081.024-.086.113-.315.073-.376l-.712.658c-.482.372-.976.737-1.496 1.073-.626.405-1.289.746-1.949 1.12-.48.273-.983.55-1.52.76-.881.205-1.763.408-2.644.612-.762.219-1.544.346-2.346.525-.162.036-.77.176-.921.11v-.008l.008-.031c1.463-.729 3.064-1.348 4.609-1.99a35.767 35.767 0 0 0 4.205-2.085 22.43 22.43 0 0 0 1.99-1.277c.297-.218.646-.462.84-.776.142-.229-.25-.918-.355-1.12-.227-.438-.406-.91-.59-1.38-.05-.159-.098-.318-.146-.477-.075-.188-.275-.424-.316-.58-.06-.239.156-1.274.243-1.364zm9.105-.039c.037.045-.021.173-.04.227-.057.159-.32.916.032.933.097-.05.148-.144.21-.227l.016.007c-.002.2-.23.755-.469.478-.282-.325.111-1.215.25-1.418zM42 12.95l.033.024c-.022.304-.43.339-.671.43l-1.626.62c-.204.08-.511.26-.736.282v-.016c-.086-.307.463-.406.671-.486l2.33-.854zm-16.771-.501h.024c-.008.204-.394.997-.097 1.136.149.08.216-.151.283-.212l.016.008c.003.229-.248.77-.485.455-.253-.336.133-1.179.259-1.387zm13.31-.188l.04.008c.153.384-.023.935-.137 1.206-.258.614-.582 1.133-.938 1.654l-.526.767c.028.135.315.391.405.51.268.354.501.735.639 1.214.07.243.033.493.08.776.048.279-.039.58-.105.791-.072.234-.118.454-.234.643-.278.454-.728.756-1.197 1.026-.302.174-.89.503-1.399.353-.477-.14-.716-.851-.598-1.528.045-.258.045-.51.105-.744.154-.61.4-1.147.695-1.63l.356-.588c.034-.053.138-.144.113-.22l-.46-.5c-.306-.38-.58-.779-.882-1.168-.15-.194-.417-.33-.51-.572-.11-.288.068-1.097.187-1.293.165-.029.372.162.485.235.318.206.632.407.938.619.116.08.248.154.331.266-.003.04 0 .038-.024.055-.16.082-.47-.022-.639.047l-.024.016c.013.154.2.275.283.376.267.326.607.698.986.909.124-.041.48-.644.575-.784l.97-1.496c.178-.294.282-.673.485-.948zm-29.96-.44c.042.05-.02.189-.041.244-.064.166-.267.79-.025.901l.065.008c.106-.054.123-.152.202-.227l.016.023c.051.17-.198.656-.436.486-.335-.24.092-1.258.218-1.434zm49.95-.101l.065.024c-.01.158-.133.422-.242.493l-1.14.415-4.763 1.85a.314.314 0 0 1-.009-.008c.007-.134.167-.568.243-.627l1.294-.47c1.517-.56 3.035-1.118 4.553-1.677zm-11.943-.016c.148.001.238.098.331.157.228.145.79.433.89.666-.029.315-.248.594-.389.823-.049.08-.089.228-.202.243l-.824-.572c-.098-.063-.282-.129-.34-.228-.034-.085.08-.224.113-.29.136-.263.242-.572.42-.799zM4.883 11.28c.036.03-.175.641-.177.815-.003.165.036.445.218.33l.17-.212h.008v.015c.06.187-.211.676-.453.486-.09-.07-.127-.308-.097-.486.066-.39.197-.652.331-.948zm31.555-.932c.217.024.76.459.938.587.075.055.234.13.259.228.05.203-.31.744-.397.877-.041.064-.094.229-.186.212-.108-.026-.192-.131-.275-.188l-.63-.416c-.067-.042-.123-.113-.219-.125-.153.261-.243.614-.46.815-.137-.01-.248-.153-.34-.22l-.865-.58c0-.14.454-1.015.541-1.096.197.003.802.457.963.572.069.05.126.14.218.164.144-.229.254-.67.453-.83zm-10.586-.055c.16.045-.146.574-.202.65-.08.11-.281.135-.42.188l-1.124.416-5.047 1.935-1.27.501c-.106.044-.363.204-.468.165.014-.168.258-.82.356-.878l1.738-.626 6.437-2.351zm25.692-.737c.06.029-.12.54-.154.635-.124.35-.384 1.137-.202 1.567.232.55.614-.088.736-.29.043.01.032.008.048.04-.108.363-.145.803-.42 1.002-.175.127-.453.078-.566-.07-.15-.196-.191-.664-.13-1.003.135-.743.345-1.346.688-1.88zM17.41 8.82l.032.016c-.096.407-.242.767-.323 1.222-.04.218.036.586.266.533.154-.036.243-.234.316-.353h.024l.008.008c.005.368-.418 1.216-.752.682-.102-.164-.106-.49-.065-.721.114-.628.263-.914.494-1.387zm33.463-.91c.036.007.033.01.056.024-.007.15-.126.416-.226.486l-1.132.415-4.788 1.857-.008-.007c.007-.136.171-.573.25-.627l1.206-.439 4.642-1.708zm-15.397 0l.04.009.008.015c-.003.118-.158.465-.227.518l-.768.274-1.69.666c-.25.101-.863.294-.898.564.148.208.685.3.745.415.06.112.045.425-.017.517-.451.008-.961-.21-1.027-.587-.054-.314.309-.8.445-.972.241-.303.618-.411 1.011-.572l1.553-.564.825-.282zm-10.812-.062h.024c-.006.19-.434 1.12-.024 1.152.111-.055.125-.153.21-.227l.016.008c.004.233-.268.782-.485.446-.24-.372.127-1.133.259-1.379zm13.06-.008c.025.017.02.008.024.047-.07.171-.366.99-.081 1.105.135.033.21-.145.259-.227l.024.016c-.003.257-.318.817-.517.407-.194-.397.157-1.105.29-1.348zm-15.519-.015c.524-.012.695.656.388.98h-.056c-.415-.51-.544-.322-.736.219-.201.565-.175 1.48-.582 1.857a56.064 56.064 0 0 0-.057-.024l-.08-.454a8.35 8.35 0 0 0-.349-.894c-.053-.12-.123-.354-.242-.407-.099-.044-.143.104-.235.117-.174.025-.454-.258-.517-.36-.093-.15.223-.662.331-.713.19-.087.453.134.542.22.257.247.43.592.55.97l.145.596.025-.015c.102-.639.266-1.494.606-1.912.072-.088.163-.122.267-.18zm-8.176 0c.444-.006 1.477-.044 1.602.211.085.153-.246.532-.316.627-.155.21-.325.43-.541.58-.258.177-1.044.396-1.416.454a.437.437 0 0 1-.008-.007v-.032c.287-.202.615-.37.93-.548.209-.118.453-.205.615-.369-.038-.13-.245-.102-.396-.125a2.938 2.938 0 0 0-.777-.023c-.118.017-.358.044-.453-.008l-.008-.024c.091-.217.26-.544.461-.658.088-.05.201-.038.307-.078zM40.012 7.8zm.032.024c-.175.51-.336 1.02-.436 1.598-.054.309.011.72.25.776.32.074.467-.506.566-.478.006.338-.214.891-.412 1.034-.172.125-.45.066-.558-.07-.163-.206-.19-.688-.13-1.035.126-.706.324-1.364.688-1.849.028.01.017.005.032.024zm18.212-.063c.065.033-.032.26-.057.33-.078.217-.461 1.334.049 1.339.138-.07.214-.304.315-.337v.016c.019.051-.02.118-.032.164-.065.24-.236.804-.599.541-.14-.102-.186-.436-.145-.682.095-.568.247-.953.469-1.371zm-31.223-.008h.048c.18.255.282.605.397.917l.606 1.56c.038.102.279.709.146.806-.16.054-.492-.402-.599-.486-.03.01-.016 0-.032.024-.058.137.016.631.04.776l.154 2.06.121 1.591.017.525c.066.4.011.826.08 1.246l.04.807c.038.23.04.555 0 .784-.047.287-.004.547-.056.814-.12.62-.24 1.176-.477 1.67-.248.513-.629 1.042-1.172 1.269a1.53 1.53 0 0 1-.777.102l-.63-.04a3.212 3.212 0 0 1-1.157-.423c-.349-.212-.66-.476-.978-.72-.046-.035-.25-.25-.3-.243l-.598.4c-.48.31-.945.643-1.512.861-.263.102-.714.22-1.035.141l-.388-.023c-.326-.064-.614-.153-.858-.298-1.083-.644-1.147-1.809-1.471-3.173l-.017-.008a.926.926 0 0 0-.016.015c-.068.384-.144.756-.299 1.066-.313.626-1.028 1.32-1.569 1.74l-.663.564a39.54 39.54 0 0 1-1.577 1.136c-.712.485-1.393.961-2.305 1.254-.711.228-1.517.318-2.32.454-.25.042-.797.081-.987-.031v-.008c.006-.053.024-.055.049-.086l.493-.235c.798-.332 1.605-.604 2.329-1.011.703-.396 1.416-.755 2.094-1.168.903-.55 1.736-1.17 2.556-1.794a8.34 8.34 0 0 0 1.447-1.387c.181-.225.411-.418.47-.76.053-.317-.026-.656-.082-.909-.073-.33-.129-.641-.21-.948-.321-1.218-.611-2.404-1.019-3.534l-.323-.846-.162-.368c-.052-.267.188-1.107.283-1.262l.065-.016c.176.092.253.314.34.494.23.477.414.984.622 1.497.279.687.496 1.427.712 2.178l.687 3.212c.226.918.345 1.92.995 2.422.62.479 1.546.501 2.361.188a5.535 5.535 0 0 0 1.051-.533l-.008-.04c-.06-.113-.221-.212-.323-.29-.36-.272-.785-.59-1.318-.68-.322-.056-.652.055-.842.148-.055.028-.186.096-.242.023-.074-.11.109-.418.154-.517l.34-.768c.13-.17.436-.242.67-.313 1.543-.466 3.898-.618 5.281.102.26.135.718.353.857.588.08.134-.185.492-.234.595-.055.114-.201.476-.291.533l-.38.133-1.011.415c-.133.055-.36.098-.453.196v.032c.181.13.352.274.574.368.725.308 1.733.329 2.37-.055.132-.08.309-.16.396-.282.168-.238.19-1.426.12-1.85l-.5-7.27-.057-1.38-.097-.423-.097-.227c-.025-.114.058-.274.089-.36.111-.316.201-.688.388-.94zm28.578-.031c.458-.009.74.78.348.987h-.024c-.117-.095-.206-.282-.38-.313-.196-.035-.3.331-.348.47-.19.54-.223 1.565-.598 1.912l-.057-.008c-.066-.152-.06-.372-.105-.525-.084-.282-.212-.559-.324-.815-.06-.137-.13-.414-.307-.43-.053.041-.095.115-.178.124-.164.02-.595-.342-.55-.509.052-.19.235-.455.372-.58.813 0 1.044 1.108 1.213 1.787l.017.008.032-.024c.157-.79.24-1.761.89-2.084zM40.012 7.8zM9.226 7.684l.065.007.016.016c.05.114-.14.459-.186.564-.087.202-.224.6-.388.713l-1.205.424c-1.58.594-3.162 1.175-4.707 1.794-.596.239-1.17.45-1.657.783-.131.09-.282.17-.38.29-.052.063-.17.177-.138.306.077.309 1.03.618 1.367.736.134.048.393.074.469.18.095.135.163 1.204-.008 1.286-.146.085-.725-.093-.874-.133-.647-.177-1.742-.57-1.585-1.474.156-.899.63-1.57 1.116-2.162.563-.687 1.455-.949 2.353-1.317 1.358-.555 2.812-1.017 4.222-1.504l1.52-.51zm20.265-.008l.057.023.307.635.728 1.732c.07.156.318.701.202.87-.297-.015-.417-.426-.639-.486l-.016.015c-.016.112-.001.24.016.345l.073.854.138 1.74.194 1.998.048.72.081 1.004.073.948c.053.325.099.788.04 1.144v.25l-.089.964c-.155.763-.27 1.495-.51 2.155-.212.59-.43 1.223-.889 1.575-.302.232-.722.36-1.132.486-.35.107-.706.207-1.075.313-.13.038-.333.123-.478.102-.024-.118.16-.197.235-.25l.857-.58c.601-.423 1.236-.87 1.698-1.427.168-.201.379-.381.494-.634.076-.168.11-.37.153-.572.112-.528.097-1.566.008-2.108-.104-.644-.05-1.318-.153-1.943l-.534-6.073-.08-1.222-.009-.431c-.032-.183-.057-.38-.121-.54L29.038 9l.057-.345c.067-.25.235-.824.396-.98zM.581 7.668h.025c-.008.168-.095.311-.138.454a6.41 6.41 0 0 0-.162.713c-.037.204.038.546.251.502.14-.03.235-.222.291-.337h.033v.016c.02.059-.026.15-.04.203-.062.215-.225.742-.575.51C.12 9.632.06 9.302.104 9.03c.088-.53.212-1.002.477-1.363zm42.367-.055c.138.037.281.523.34.674l.735 1.904c.056.151.223.56.121.713-.302-.01-.417-.38-.622-.501a3.9 3.9 0 0 1-.025.015c-.037.191.003.443.033.627.077.48.027 1.001.121 1.442l.25 3.589.106 1.34.016.462.04.658c.025.157.042.388.017.549l-.033.76c-.115.653-.187 1.247-.388 1.786-.073.195-.199.643-.356.737l-.032-.032c-.084-.15.025-.71.048-.893.05-.389.071-1.095.009-1.48l-.04-.918-.09-1.387a1663.146 1663.146 0 0 1-.121-1.763c-.15-.915-.078-1.922-.226-2.82l-.138-2.194-.04-1.113-.081-.502-.13-.352c-.022-.125.057-.277.09-.368.096-.27.213-.753.396-.933zm-32.574-.086l.057.023c.304.715.59 1.45.873 2.202.097.257.34.71.283 1.042l-.024.032c-.265-.009-.425-.386-.606-.502-.031.01-.017 0-.033.024-.034.066-.002.416.016.525l.114 1.394.178 2.86.072 1.215.016.854-.056 1.144c-.12.71-.17 1.367-.413 1.935-.371.874-1.087 1.51-1.803 2.053-1.402 1.066-2.782 2.15-4.852 2.57-.465.095-1.127.062-1.545-.039-1.553-.375-2.198-1.428-2.498-3.016-.056-.297-.087-.727-.033-1.05l.033-.58c.1-.556.186-1.061.38-1.505.089-.204.236-.628.42-.72l.025.007c.066.173-.075.425-.13.557-.16.385-.248.818-.34 1.261-.257 1.253.225 2.205.769 2.86.549.66 2.001 1.077 3.25.752 1.842-.479 3.26-1.353 4.594-2.327.378-.276.72-.579 1.084-.862.16-.125.347-.254.412-.47.089-.295.071-.841.016-1.167l-.097-1.646-.08-1.363-.276-3.738-.04-.972-.049-1.285c-.048-.288-.135-.507-.202-.736-.03-.1.029-.254.057-.33.093-.25.266-.846.428-1.002z"/></g></g></g></g></g></g></g></g></g></svg>