<svg xmlns="http://www.w3.org/2000/svg" width="57" height="38" viewBox="0 0 57 38"><g><g><g><path fill="#28377b" d="M18.896 11.14l.697.663.698-.697-.731-.695z"/></g><g><path fill="#9d9fa2" d="M21.259 11.14l.697.663.697-.697-.73-.695z"/></g><g><path fill="#d1da30" d="M20.22 12.046l.571.538.507-.57-.539-.539z"/></g><g><path fill="#73ba44" d="M22.292 12.337l.57.539.507-.539-.539-.539z"/></g><g><path fill="#d1da30" d="M19.307 12.892l.525-.549.55.526-.526.55z"/></g><g><path fill="#27b7bd" d="M21.19 12.971l.526-.549.55.527-.527.549z"/></g><g><path fill="#73ba44" d="M20.46 13.615l.373-.389.389.373-.373.389z"/></g><g><path fill="#59b65e" d="M21.966 13.922l.38.38.38-.412-.412-.348z"/></g><g><path fill="#3189c9" d="M25.235 10.918l1.216-.223.223 1.215-1.216.223z"/></g><g><path fill="#213a71" d="M23.809 12.374l-.177-.966.966-.177.177.966z"/></g><g><path fill="#27b7bd" d="M25.542 12.798l.966-.177.177.966-.966.177z"/></g><g><path fill="#d1da30" d="M24.166 12.939l.748-.138.137.748-.748.138z"/></g><g><path fill="#9d9fa2" d="M25.654 14.395l.748-.137.137.748-.748.137z"/></g><g><path fill="#27b7bd" d="M23.003 13.263l.748-.138.138.748-.748.138z"/></g><g><path fill="#73ba44" d="M24.426 14.261l.748-.137.137.748-.748.137z"/></g><g><path fill="#9d9fa2" d="M23.443 14.367l.53-.097.097.53-.53.097z"/></g><g><path fill="#59b65e" d="M24.475 15.467l.53-.097.096.53-.53.097z"/></g><g><path fill="#28377b" d="M28.376 16.063l.53-1.116 1.116.53-.53 1.116z"/></g><g><path fill="#27b7bd" d="M26.856 15.303l.885.412.442-.884-.885-.412z"/></g><g><path fill="#73ba44" d="M27.6 17.534l.884.442.442-.884-.884-.442z"/></g><g><path fill="#d1da30" d="M26.497 16.665l.698.317.348-.663-.697-.349z"/></g><g><path fill="#d1da30" d="M26.853 18.734l.697.317.349-.697-.697-.317z"/></g><g><path fill="#3189c9" d="M25.397 16.245l.697.316.317-.663-.697-.35z"/></g><g><path fill="#9d9fa2" d="M25.947 17.893l.663.317.349-.697-.697-.317z"/></g><g><path fill="#73ba44" d="M25.176 17.175l.232-.487.486.232-.232.486z"/></g><g><g><path fill="#27b7bd" d="M25.41 18.72l.232-.486.487.232-.232.486z"/></g><g><path fill="#3189c9" d="M28.982 21.999l1.078-.57-.602-1.078-1.078.57z"/></g></g><g><path fill="#27b7bd" d="M27.632 19.451l.476.885.855-.476-.475-.85z"/></g><g><path fill="#27b7bd" d="M26.921 21.716l.475.855.856-.475-.475-.855z"/></g><g><path fill="#28377b" d="M26.562 20.356l.349.664.697-.349-.383-.695z"/></g><g><path fill="#59b65e" d="M25.624 22.232l.38.663.663-.348-.348-.664z"/></g><g><path fill="#213a71" d="M25.883 19.355l.38.663.663-.349-.349-.663z"/></g><g><path fill="#d1da30" d="M25.365 21.003l.38.663.663-.348-.348-.697z"/></g><g><path fill="#9d9fa2" d="M25.175 20.009l.473-.259.258.472-.472.26z"/></g><g><path fill="#27b7bd" d="M24.454 21.325l.473-.259.259.473-.473.259z"/></g><g><path fill="#73ba44" d="M25.443 26.177l.152-1.227 1.227.152-.152 1.227z"/></g><g><path fill="#213a71" d="M25.693 24.266l.12-.974.975.12-.12.975z"/></g><g><path fill="#27b7bd" d="M24.796 25.786l-.975-.122.121-.974.975.12z"/></g><g><path fill="#73ba44" d="M24.338 24.153l.093-.755.755.093-.093.755z"/></g><g><path fill="#9d9fa2" d="M22.472 25.137l.094-.755.755.093-.094.756z"/></g><g><path fill="#9d9fa2" d="M24.381 22.94l.094-.754.754.093-.093.755z"/></g><g><path fill="#73ba44" d="M23.004 23.98l.094-.754.754.094-.093.755z"/></g><g><path fill="#9d9fa2" d="M23.444 22.812l.066-.535.535.066-.066.535z"/></g><g><path fill="#9d9fa2" d="M22.082 23.479l.066-.535.534.066-.066.535z"/></g><g><path fill="#73ba44" d="M20.097 27.433l.918.824.824-.885-.884-.823z"/></g><g><path fill="#73ba44" d="M19.935 9.906l.919.824.823-.884-.884-.824z"/></g><g><path fill="#27b7bd" d="M21.453 26.044l.697.663.697-.697-.73-.695z"/></g><g><path fill="#73ba44" d="M19.09 26.076l.698.663.697-.697-.729-.663z"/></g><g><path fill="#3189c9" d="M20.415 25.138l.539.538.538-.57-.57-.507z"/></g><g><path fill="#d1da30" d="M18.315 24.876l.517-.557.557.517-.517.557z"/></g><g><path fill="#d1da30" d="M21.127 24.2l.57.539.54-.57-.571-.54z"/></g><g><path fill="#9d9fa2" d="M19.412 24.232l.57.507.507-.539-.57-.538z"/></g><g><path fill="#213a71" d="M20.458 23.562l.366-.394.395.366-.367.395z"/></g><g><path fill="#9d9fa2" d="M18.975 23.283l.366-.395.395.366-.366.396z"/></g><g><path fill="#3189c9" d="M15.273 26.562l-.242-1.211 1.211-.243.243 1.212z"/></g><g><path fill="#27b7bd" d="M17.12 25.96l-.193-.963.962-.193.193.963z"/></g><g><path fill="#73ba44" d="M14.99 23.673l.963-.193.194.963-.964.193z"/></g><g><path fill="#d1da30" d="M16.625 23.677l.745-.15.15.746-.746.15z"/></g><g><path fill="#28377b" d="M17.791 23.35l.746-.15.15.747-.746.149z"/></g><g><path fill="#3189c9" d="M16.364 22.35l.746-.15.15.746-.746.15z"/></g><g><path fill="#73ba44" d="M17.613 22.419l.528-.106.105.528-.528.106z"/></g><g><path fill="#9d9fa2" d="M16.546 21.322l.528-.106.105.528-.528.106z"/></g><g><path fill="#27b7bd" d="M11.641 21.84l.512-1.125 1.125.511-.512 1.125z"/></g><g><path fill="#d1da30" d="M13.493 22.415l.884.412.412-.884-.884-.412z"/></g><g><path fill="#3189c9" d="M12.716 20.217l.884.412.412-.92-.916-.377z"/></g><g><path fill="#27b7bd" d="M14.107 20.967l.316-.692.692.315-.316.692z"/></g><g><path fill="#28377b" d="M13.702 18.902l.315-.692.692.315-.315.692z"/></g><g><path fill="#d1da30" d="M14.655 19.747l.316-.691.691.316-.316.691z"/></g><g><path fill="#27b7bd" d="M11.456 15.864l.602 1.078 1.077-.602-.602-1.078z"/></g><g><g><path fill="#9d9fa2" d="M15.039 22.665l.697.317.317-.697-.697-.317z"/></g><g><path fill="#59b65e" d="M15.185 21.306l.316-.692.691.316-.315.692z"/></g><g><path fill="#213a71" d="M15.668 20.292l.224-.49.49.224-.224.49z"/></g><g><path fill="#213a71" d="M13.265 15.252l.507.856.856-.507-.507-.856z"/></g><g><path fill="#73ba44" d="M14.817 14.777l.38.663.663-.38-.38-.632z"/></g><g><path fill="#73ba44" d="M15.475 18.832l.224-.49.49.224-.224.49z"/></g><g><path fill="#73ba44" d="M13.107 18.325l.855-.507-.475-.856-.855.507z"/></g><g><path fill="#3189c9" d="M13.962 16.646l.38.663.664-.38-.38-.663z"/></g><g><path fill="#27b7bd" d="M15.29 17.248l-.662.348.38.663.663-.348z"/></g><g><path fill="#d1da30" d="M15.102 15.98l.38.664.664-.38-.38-.663z"/></g><g><path fill="#9d9fa2" d="M15.607 17.072l.468-.267.267.468-.468.267z"/></g></g><g><g><path fill="#73ba44" d="M16.337 15.628l.468-.266.267.468-.468.266z"/></g><g><path fill="#73ba44" d="M14.678 12.18l.131-1.228 1.229.131-.131 1.228z"/></g><g><path fill="#9d9fa2" d="M14.737 13.828l.104-.977.977.105-.105.976z"/></g></g><g><g><path fill="#27b7bd" d="M17.55 12.533l-.976-.104.105-.977.976.104z"/></g><g><path fill="#d1da30" d="M16.327 13.746l.08-.756.757.08-.081.757z"/></g></g><g><path fill="#3189c9" d="M18.172 12.733l.08-.756.756.08-.08.756z"/></g><g><path fill="#27b7bd" d="M16.298 14.965l.08-.756.757.081-.081.756z"/></g><g><path fill="#73ba44" d="M17.684 13.888l.08-.756.757.081-.081.756z"/></g><g><path fill="#213a71" d="M17.469 14.88l.057-.535.535.057-.057.535z"/></g><g><path fill="#9d9fa2" d="M18.842 14.18l.057-.536.536.057-.057.536z"/></g><g><path fill="#005b4e" d="M24.159 19.174a2.888 2.888 0 0 0-1.33-.095c-.198.023-.39.076-.571.158-.032 0-.032 0-.063.032-.104.048-.21.09-.317.127a.69.69 0 0 0-.254.158 6.425 6.425 0 0 0-.57.412 13.1 13.1 0 0 1-.064-3.104c.476.285.349 1.105.222 1.33a1.492 1.492 0 0 0 .19-1.616.737.737 0 0 1 .22.222c.167.194.257.441.254.697v.38a1.335 1.335 0 0 0-.253-1.553l-.095-.095c.031 0 .063.032.095.032.087.036.172.078.253.127.17.131.302.306.38.507.059.14.091.29.095.442a1.21 1.21 0 0 0-.095-.92.806.806 0 0 0-.38-.348 1.869 1.869 0 0 0-.253-.126c-.032 0-.095-.032-.127-.032h.127a.617.617 0 0 1 .253.032c.136.027.265.08.38.158a.89.89 0 0 1 .254.253.86.86 0 0 0-.254-.507.723.723 0 0 0-.38-.19.788.788 0 0 0-.253-.031.937.937 0 0 0-.317.063.536.536 0 0 1 .317-.221.788.788 0 0 1 .253-.032.458.458 0 0 1 .221.064 1.378 1.378 0 0 0-.22-.19c-.096-.032-.16-.064-.254-.095a.64.64 0 0 0-.634.316l-.095-.19a2.787 2.787 0 0 1-.158-.475 2.788 2.788 0 0 1-.159.475l-.095.19a.683.683 0 0 0-1.105-.063.726.726 0 0 1 .824.221 1.007 1.007 0 0 0-1.046.254.602.602 0 0 0-.158.411.696.696 0 0 1 .158-.19c.235-.18.53-.259.824-.22a1.085 1.085 0 0 0-.824.662c-.08.248-.08.514 0 .76v-.03c-.022-.512.325-.965.824-1.078a1.408 1.408 0 0 0-.38 1.68 1.356 1.356 0 0 1 .475-1.3 1.374 1.374 0 0 0 .19 1.616c-.095-.221-.221-1.046.221-1.33a11.579 11.579 0 0 1-.063 3.104 5.52 5.52 0 0 0-1.141-.697c-.063-.032-.095-.032-.127-.064a3.542 3.542 0 0 0-1.077-.158 3.03 3.03 0 0 0-1.105.285c-.064-.032-.095-.032-.127 0v.032c.032 0 .063-.032.095-.032.358-.108.734-.14 1.105-.095.375.028.742.126 1.08.289.475.217.913.506 1.3.855-.407.4-.841.77-1.3 1.109l-.031.031a.301.301 0 0 0-.317-.127.313.313 0 0 0-.221.222.23.23 0 0 0 .063.253.426.426 0 0 0 .539.063 6.779 6.779 0 0 0 1.426-1.204c.063-.031.095-.095.158-.126.064.031.095.095.159.126.253.254.507.476.728.664.095.095.19.158.254.22.119.096.246.18.38.254a.473.473 0 0 0 .57 0 .031.031 0 0 0 .032-.032.306.306 0 0 0 .059-.25c0-.063-.032-.094-.095-.158a.24.24 0 0 0-.127-.063.301.301 0 0 0-.317.127c-.031-.032-.095-.032-.126-.064a5.968 5.968 0 0 1-.38-.285c-.096-.063-.159-.158-.254-.221-.19-.158-.38-.349-.57-.539.182-.157.372-.304.57-.442.077-.064.162-.117.253-.158l.38-.19c.185-.088.376-.162.571-.221a3.09 3.09 0 0 1 1.33-.095c.163.027.322.07.476.126 0 0 .032 0 0-.031a.81.81 0 0 0-.476-.256z"/></g><g><g/><g/><g/><g/><g/><g/><g/><g/><g><path fill="#005b4e" d="M23.56 29.526h.348v.348h-.349z"/></g><g><path fill="#005b4e" d="M25.76 33.105h.35v.349h-.35z"/></g><g><path fill="#005b4e" d="M1.584 30.666h.349v1.68h-.349a1.59 1.59 0 0 1-.38-.064.991.991 0 0 1-.317-.158.493.493 0 0 1-.19-.254.626.626 0 0 1-.063-.348.639.639 0 0 1 .095-.349.854.854 0 0 1 .22-.253.991.991 0 0 1 .318-.16c.064-.094.19-.094.317-.094zm-.919-.031a.865.865 0 0 0-.285.38 1.27 1.27 0 0 0-.095.475.97.97 0 0 0 .127.539c.07.153.179.284.317.38.145.098.306.173.475.221.188.038.379.06.57.063h2.313v-2.375h-.349v2.028H2.281v-2.028h-.57a1.842 1.842 0 0 0-.602.095 1.17 1.17 0 0 0-.444.222z"/></g><g><path fill="#005b4e" d="M27.703 33.105h.348v.349h-.348z"/></g><g><path fill="#005b4e" d="M26.376 33.105h.349v.349h-.349z"/></g><g><path fill="#005b4e" d="M35.18 29.526h.35v3.167h-.35z"/></g><g><path fill="#005b4e" d="M39.01 30.663h.35v1.679h-.35a1.59 1.59 0 0 1-.38-.064.991.991 0 0 1-.316-.158.493.493 0 0 1-.19-.253.626.626 0 0 1-.064-.349.639.639 0 0 1 .095-.348.854.854 0 0 1 .221-.254.99.99 0 0 1 .317-.158c.063-.092.19-.092.316-.092zm7.222.792a.874.874 0 0 1 .475-.476.626.626 0 0 1 .349-.063c.129.006.256.027.38.063.11.037.209.103.285.19.085.08.15.177.19.286.04.123.06.25.064.38a1.59 1.59 0 0 1-.064.38c-.048.104-.112.2-.19.285a.748.748 0 0 1-.285.19c-.123.04-.251.06-.38.064a1.139 1.139 0 0 1-.349-.064l-.285-.19a.748.748 0 0 1-.19-.285 1.347 1.347 0 0 1-.063-.348.604.604 0 0 1 .063-.409zm3.421 0a.873.873 0 0 1 .475-.476.626.626 0 0 1 .349-.063c.129.006.257.027.38.063.11.037.21.103.285.19.085.08.15.177.19.286.04.123.06.25.064.38a1.59 1.59 0 0 1-.064.38c-.048.104-.112.2-.19.285a.748.748 0 0 1-.285.19c-.123.04-.25.06-.38.064a1.139 1.139 0 0 1-.349-.064l-.285-.19a.748.748 0 0 1-.19-.285 1.346 1.346 0 0 1-.063-.348.604.604 0 0 1 .063-.409zM38.09 30.63a.865.865 0 0 0-.285.38c-.062.151-.094.312-.095.475a.97.97 0 0 0 .127.539c.07.153.179.284.317.38.145.099.306.173.475.221.188.039.379.06.57.064h6.938a1.205 1.205 0 0 0 .919.38c.183 0 .366-.033.538-.095a.965.965 0 0 0 .412-.285h1.553a1.206 1.206 0 0 0 .919.38c.183 0 .366-.033.538-.095a.965.965 0 0 0 .412-.285h1.806v-3.164h-.348v2.819H51.68c.062-.162.094-.334.095-.507a1.205 1.205 0 0 0-.38-.919 1.905 1.905 0 0 0-.412-.285 1.4 1.4 0 0 0-1.014 0 1.205 1.205 0 0 0-.665.697 1.313 1.313 0 0 0-.095.507.877.877 0 0 0 .031.285c.032.095.032.158.064.253h-1.078c.062-.161.095-.333.095-.506a1.205 1.205 0 0 0-.38-.919 1.905 1.905 0 0 0-.412-.285 1.4 1.4 0 0 0-1.014 0 1.205 1.205 0 0 0-.665.697 1.313 1.313 0 0 0-.095.507.877.877 0 0 0 .032.285c.031.095.031.158.063.253h-1.105V29.59h-.349v2.82h-1.105v-.54a1.59 1.59 0 0 0-.063-.38.991.991 0 0 0-.159-.317.724.724 0 0 0-.317-.22.94.94 0 0 0-.442-.064H40.76l.663-1.267h-.349l-.663 1.267a.45.45 0 0 0 .063.19c.032.064.064.095.095.159h1.806a.633.633 0 0 1 .286.063c.072.027.137.07.19.127.056.048.09.116.095.19a.617.617 0 0 1 .031.253v.539h-3.262V30.38h-.57a1.842 1.842 0 0 0-.603.095.59.59 0 0 0-.45.155z"/></g><g><path fill="#005b4e" d="M54.247 29.526h.348v3.167h-.348z"/></g><g><path fill="#005b4e" d="M39 29.526h.35v.348h-.35z"/></g><g><path fill="#005b4e" d="M38.385 29.526h.349v.348h-.349z"/></g><g><path fill="#005b4e" d="M30.67 30.98c.122-.106.26-.192.411-.253.141-.054.292-.075.442-.063.163 0 .325.033.476.095.146.055.285.129.412.221l-.54 1.363h-.633zm-1.458-.662v2.726a.242.242 0 0 1-.063.159l-.096.095a.237.237 0 0 1-.158.031H28.8a.116.116 0 0 1-.095-.031l-.095.348a.877.877 0 0 0 .285.032.937.937 0 0 0 .317-.064.426.426 0 0 0 .22-.19.597.597 0 0 0 .128-.285c.029-.124.04-.252.031-.38v-.065h4.53v-3.168h-.348v2.819h-1.488l.599-1.457a1.74 1.74 0 0 0-.286-.221c-.095-.063-.22-.127-.316-.19a1.547 1.547 0 0 0-.349-.127 1.933 1.933 0 0 0-.697 0c-.12.028-.238.07-.348.127-.11.056-.216.12-.317.19-.095.063-.19.158-.286.221l.634 1.458h-1.295v-2.028z"/></g><g><path fill="#005b4e" d="M1.901 29.526h.349v.348H1.9z"/></g><g><path fill="#005b4e" d="M3.738 33.105h.349v.349h-.349z"/></g><g><path fill="#005b4e" d="M1.3 29.526h.348v.348h-.349z"/></g><g><path fill="#005b4e" d="M3.104 33.105h.349v.349h-.349z"/></g><g><path fill="#005b4e" d="M4.53 32.346v.348h1.996V31.3a1.59 1.59 0 0 0-.063-.38.991.991 0 0 0-.158-.317.724.724 0 0 0-.317-.221.87.87 0 0 0-.412-.064h-.254v.349h.317a.746.746 0 0 1 .254.063.84.84 0 0 1 .19.159c.056.048.09.116.095.19a.617.617 0 0 1 .031.253v1.014z"/></g><g><path fill="#005b4e" d="M23.874 30.666h.349v1.68h-.349a1.59 1.59 0 0 1-.38-.064.991.991 0 0 1-.317-.158.493.493 0 0 1-.19-.254.626.626 0 0 1-.063-.348.639.639 0 0 1 .095-.349.854.854 0 0 1 .22-.253.991.991 0 0 1 .318-.159c.064-.095.19-.095.317-.095zm-.919-.031a.865.865 0 0 0-.285.38c-.062.15-.094.312-.095.475a.97.97 0 0 0 .127.539c.07.153.179.284.317.38.145.098.306.173.475.221.188.038.379.06.57.063h3.992v-2.375h-.349v2.028h-1.33v-2.028h-.349v2.028h-1.393v-2.028h-.57a1.842 1.842 0 0 0-.603.095c-.185.028-.36.105-.507.222z"/></g><g><path fill="#005b4e" d="M20.355 29.526h.348v3.167h-.348z"/></g><g><path fill="#005b4e" d="M24.174 29.526h.349v.348h-.349z"/></g><g><path fill="#005b4e" d="M10.138 30.982c.122-.107.261-.192.412-.253.14-.054.291-.076.442-.063.163 0 .324.033.475.095.147.054.285.128.412.22l-.539 1.363h-.633zm-1.394 1.363h-.349a1.59 1.59 0 0 1-.38-.064.991.991 0 0 1-.317-.158.854.854 0 0 1-.221-.253.626.626 0 0 1-.063-.349.639.639 0 0 1 .095-.349c.063-.102.137-.198.22-.285a.99.99 0 0 1 .318-.158c.112-.036.23-.058.348-.063h.349zm-.19-2.027a1.842 1.842 0 0 0-.603.095 1.678 1.678 0 0 0-.475.253.865.865 0 0 0-.285.38 1.27 1.27 0 0 0-.095.476.97.97 0 0 0 .127.538c.07.153.179.285.317.38.145.099.306.174.475.222.188.038.379.06.57.063h.221v.095a.432.432 0 0 1-.158.38.82.82 0 0 1-.442.127.787.787 0 0 1-.285-.032l-.286-.095-.097.349c.113.051.23.093.349.127.103.026.21.036.316.031.278.02.551-.07.76-.253a.892.892 0 0 0 .222-.663v-.064h5.386c.152.002.303-.03.442-.095a.693.693 0 0 0 .317-.285.843.843 0 0 0 .348.317 1.365 1.365 0 0 0 1.077.032.743.743 0 0 0 .349-.349c.032.063.063.095.095.158a.316.316 0 0 0 .158.127c.083.037.168.069.254.095a.617.617 0 0 0 .253.032h1.014v-3.17h-.346v2.82h-.57a.89.89 0 0 1-.476-.094.748.748 0 0 1-.285-.253.976.976 0 0 0 .031-.317v-1.142h-.348v1.204a.778.778 0 0 1-.159.475.623.623 0 0 1-.507.19.925.925 0 0 1-.285-.063.51.51 0 0 1-.22-.127c-.064-.063-.096-.127-.16-.19 0-.158-.031-.221-.031-.317V30.54h-.349v1.205a.925.925 0 0 1-.063.285.663.663 0 0 1-.127.19.274.274 0 0 1-.19.095.54.54 0 0 1-.22.032h-.698v-1.807h-.348v1.806H11.69l.602-1.458a1.74 1.74 0 0 0-.286-.22c-.095-.064-.22-.128-.316-.19a1.547 1.547 0 0 0-.349-.128 1.933 1.933 0 0 0-.697 0c-.12.028-.238.071-.349.127-.11.056-.215.12-.316.19-.095.064-.19.159-.286.221l.634 1.458H9.092v-2.027z"/></g></g><g><path fill="#005b4e" d="M2.788 35.006H2.25l-1.206 1.268v-1.268H.602v2.506h.442v-.73l.412-.38.856 1.106h.538l-1.105-1.426z"/></g><g><path fill="#005b4e" d="M3.231 35.006h.444v2.503H3.23z"/></g><g><path fill="#005b4e" d="M6.114 36.749l-1.33-1.743h-.412v2.506h.442v-1.775l1.362 1.775h.38v-2.506h-.442z"/></g><g><path fill="#005b4e" d="M8.395 36.496h.634v.475a.975.975 0 0 1-.602.19.84.84 0 0 1-.856-.884.853.853 0 0 1 .824-.885.884.884 0 0 1 .697.286l.285-.349a1.372 1.372 0 0 0-.982-.348 1.284 1.284 0 0 0-1.299 1.299 1.248 1.248 0 0 0 1.299 1.299 1.73 1.73 0 0 0 1.046-.38v-1.046H8.363v.348z"/></g><g><g/><g><path fill="#005b4e" d="M11.85 36.9a.824.824 0 0 1-.635.23h-.506v-1.712h.506a.824.824 0 0 1 .885.856.824.824 0 0 1-.25.626zm-.606-1.894h-.95v2.506h.95a1.253 1.253 0 0 0 1.331-1.268 1.242 1.242 0 0 0-1.33-1.238z"/></g></g><g><g/><g><path fill="#005b4e" d="M15.201 36.274a.856.856 0 1 1-1.71 0 .858.858 0 0 1 .855-.884.84.84 0 0 1 .855.884zm-.824-1.3a1.312 1.312 0 0 0-1.33 1.3 1.284 1.284 0 0 0 1.299 1.299 1.312 1.312 0 0 0 1.33-1.3 1.266 1.266 0 0 0-1.299-1.298z"/></g></g><g><path fill="#005b4e" d="M17.55 36.21l-.792-1.204h-.475v2.506h.442v-1.775l.792 1.173h.032l.792-1.173v1.775h.442v-2.506h-.475z"/></g><g><g/><g><path fill="#005b4e" d="M22.646 36.274a.856.856 0 1 1-1.71 0 .858.858 0 0 1 .855-.885.84.84 0 0 1 .855.885zm-.855-1.3a1.312 1.312 0 0 0-1.331 1.3 1.284 1.284 0 0 0 1.299 1.299 1.312 1.312 0 0 0 1.33-1.3 1.23 1.23 0 0 0-1.298-1.298z"/></g></g><g><path fill="#005b4e" d="M23.722 37.512h.442v-1.014h1.268v-.412h-1.268v-.663h1.426v-.417h-1.868z"/></g><g><path fill="#005b4e" d="M28.198 36.052c-.476-.127-.602-.19-.602-.38 0-.159.158-.285.412-.285.251.017.493.105.697.253l.22-.348a1.463 1.463 0 0 0-.918-.317.755.755 0 0 0-.856.728c0 .476.317.634.824.76.475.096.57.191.57.381s-.158.317-.442.317a1.253 1.253 0 0 1-.792-.317l-.253.317c.282.267.657.414 1.045.412.539 0 .885-.285.885-.76.033-.444-.252-.634-.79-.761z"/></g><g><g/><g><path fill="#005b4e" d="M30.182 36.527l.442-1.014.442 1.014zm.254-1.52L29.33 37.54h.442l.254-.602h1.205l.254.602h.475l-1.105-2.534z"/></g></g><g><path fill="#005b4e" d="M33.981 36.464c0 .475-.253.697-.634.697-.38 0-.633-.254-.633-.729v-1.426h-.443v1.458a.993.993 0 0 0 1.078 1.105 1.003 1.003 0 0 0 1.077-1.14v-1.423h-.442z"/></g><g><g/><g><path fill="#005b4e" d="M36.927 36.274a.824.824 0 0 1-.885.855h-.507v-1.71h.507a.81.81 0 0 1 .885.855zm-.856-1.268h-.95v2.506h.95a1.253 1.253 0 0 0 1.33-1.268 1.242 1.242 0 0 0-1.33-1.238z"/></g></g><g><path fill="#005b4e" d="M38.006 35.006h.444v2.503h-.444z"/></g><g><g/><g><path fill="#005b4e" d="M40.93 36.527l.442-1.014.442 1.014zm.22-1.52l-1.104 2.533h.442l.253-.602h1.204l.254.602h.475l-1.105-2.534z"/></g></g><g><g/><g><path fill="#005b4e" d="M44.253 36.24h-.633v-.855h.633c.317 0 .507.159.507.412 0 .285-.19.442-.507.442zm.951-.442a.653.653 0 0 0-.221-.538 1.013 1.013 0 0 0-.729-.254H43.15v2.506h.442v-.885h.539l.633.885h.507l-.663-.95a.755.755 0 0 0 .597-.764z"/></g></g><g><g/><g><path fill="#005b4e" d="M46.736 36.527l.442-1.014.442 1.014zm.221-1.52l-1.105 2.533h.442l.253-.602h1.204l.254.602h.475l-1.105-2.534z"/></g></g><g><g/><g/><g><path fill="#005b4e" d="M50.54 36.78c0 .222-.19.35-.475.35h-.729v-.698h.697c.349 0 .507.127.507.349zm-1.204-1.393h.634c.285 0 .442.126.442.316 0 .221-.19.349-.475.349h-.602zm1.141.823a.584.584 0 0 0 .349-.57.602.602 0 0 0-.159-.412.892.892 0 0 0-.663-.22H48.86v2.504h1.172c.57 0 .92-.253.92-.697.03-.32-.16-.51-.476-.605z"/></g></g><g><path fill="#005b4e" d="M51.554 35.006h.444v2.503h-.444z"/></g><g><g/><g><path fill="#005b4e" d="M53.26 36.527l.443-1.014.442 1.014zm.254-1.52L52.41 37.54h.442l.254-.602h1.204l.253.602h.475l-1.105-2.534z"/></g></g><g><path fill="#005b4e" d="M48.705 11.273h.324c4.079.032 7.363 3.384 7.34 7.494v.293c-.155 4.151-3.608 7.397-7.73 7.266h-.323c-4.079-.032-7.363-3.384-7.34-7.494v-.293c.155-4.15 3.607-7.396 7.728-7.265zm4.3 7.364c-.014-2.422-1.959-4.381-4.362-4.396h-.26a4.23 4.23 0 0 0-2.95 1.4 4.293 4.293 0 0 0-1.092 3.097v.195c.015 2.422 1.96 4.381 4.363 4.396h.26a4.23 4.23 0 0 0 2.95-1.4 4.293 4.293 0 0 0 1.092-3.097zM5.337 23.328h5.53v2.737H.13v-2.509l4.82-3.975c1.81-1.466 2.49-2.28 2.49-3.518a1.705 1.705 0 0 0-.389-1.259 1.68 1.68 0 0 0-1.164-.599h-.388c-1.1 0-1.844.652-2.975 1.923l-2.2-1.76c1.488-1.922 2.814-2.964 5.434-2.964 2.975 0 4.98 1.76 4.98 4.496v.066c0 2.443-1.229 3.616-3.783 5.604l-3.268 2.41-.647.454zm39.779-14.73h.647v.652h-.647zm1.196 0h.647v.652h-.647zM7.244 7.883h-.647v-5.96h.712zm5.53-1.562c0 1.043-.873 1.695-2.037 1.695A3.222 3.222 0 0 1 8.31 7.07l.421-.521c.53.557 1.273.854 2.038.814.808 0 1.326-.423 1.326-1.01 0-.521-.291-.88-1.553-1.108-1.39-.293-1.973-.75-1.973-1.76a1.775 1.775 0 0 1 1.876-1.662h.097a3.257 3.257 0 0 1 2.102.754l-.42.521a2.64 2.64 0 0 0-1.747-.652c-.744 0-1.262.424-1.262 1.01 0 .587.292.88 1.618 1.174 1.326.293 1.94.75 1.94 1.694zm5.983-4.463h.162a2.94 2.94 0 0 1 2.082.94c.541.582.827 1.359.794 2.156v.293a3.084 3.084 0 0 1-1.655 2.593 3.04 3.04 0 0 1-3.056-.147 3.09 3.09 0 0 1-1.402-2.74v-.13a3.083 3.083 0 0 1 3.072-2.997zm2.329 2.998a2.405 2.405 0 0 0-2.332-2.411h-.13a2.326 2.326 0 0 0-2.198 2.443v.066a2.405 2.405 0 0 0 2.332 2.41h.13a2.326 2.326 0 0 0 2.198-2.443zm-7.212-2.932h.712v5.959h-.712zM2.558 7.95L0 1.923h.744l.356.881L2.846 7.07l.163.424-.065-.652 2.037-4.92h.711L3.137 7.95zm24.738-6.027h.647v5.959h-.518l-4.27-5.374.356.88v4.494h-.643v-5.96h.647l4.01 5.149-.226-.717zm6.564-.652h-.646V.65h.646zm15.2 4.464a.816.816 0 0 1-.518-.652 1.94 1.94 0 0 1-.226-.945 2.12 2.12 0 0 1 .162-.88c.104-.283.283-.531.517-.718.292-.161.583-.324.874-.454a3.62 3.62 0 0 1 1.035-.163h1.031v4.495c.01.43-.14.848-.42 1.173a1.67 1.67 0 0 1-1.326.455 3.538 3.538 0 0 1-.583-.065c-.226-.065-.421-.162-.647-.227l.162-.587.518.163c.167.054.342.076.517.065.288.026.576-.055.809-.227a.804.804 0 0 0 .29-.717v-.652l-.225.424h-.161a9.343 9.343 0 0 1-1.003-.13 2.277 2.277 0 0 1-.809-.36zm-.003-2.216c-.117.184-.174.4-.162.619-.007.225.038.448.131.653.07.184.195.343.356.455.153.128.329.228.518.293.23.075.47.119.711.13h.712V2.803l.356-.163h-1.033a3.79 3.79 0 0 0-.647.13 1.637 1.637 0 0 0-.518.294c-.179.11-.325.267-.42.455zM35.122 1.27h-.647V.65h.647zm18.337 6.745c-.175.01-.35-.012-.517-.065l.161-.587.162.065h.162a.478.478 0 0 0 .291-.065l.162-.163c.064-.13.064-.163.13-.293V1.923h.646v4.43c.01.22-.011.439-.065.652l-.161.521a2.23 2.23 0 0 1-.42.359 2.722 2.722 0 0 1-.55.13zM51.842 1.27h-1.326V.75c.004-.207.06-.408.161-.587.178-.103.378-.16.583-.163h.451v.424h-.451c-.097 0-.226.065-.226.163v.227h.809zM33.378 7.95c-.064-.065-.064-.065-.13-.033C31.643 7.878 30.37 6.54 30.4 4.92v-.13a2.995 2.995 0 0 1 2.975-2.867h1.746v4.854c.065.13.065.163.13.293l.161.163c.088.052.19.075.291.065H46.67V1.923h.647V8.05H35.769a3.737 3.737 0 0 1-.582-.13 2.23 2.23 0 0 1-.42-.36l-.066-.064v.454h-1.326zm-2.266-3.03c0 1.247.994 2.263 2.23 2.281h1.23a.355.355 0 0 1-.13-.293 2.233 2.233 0 0 1-.064-.652V2.671l.42-.163h-1.55a2.351 2.351 0 0 0-2.136 2.412zm9.057 16.616c0 2.804-1.973 4.79-5.239 4.79a7.038 7.038 0 0 1-5.627-2.508L31.5 21.7a4.4 4.4 0 0 0 3.493 1.76c.472.063.95-.067 1.327-.36A1.8 1.8 0 0 0 37 21.895v-.261c-.003-1.173-1.038-1.855-2.848-1.855h-1.327l-.517-1.988 4.657-4.692-1.843 1.171h-4.948v-2.737h9.77v2.41l-3.655 3.519c1.974.326 3.881 1.369 3.881 4.073z"/></g></g></g></svg>