<svg xmlns="http://www.w3.org/2000/svg" width="64.459" height="23.019" viewBox="0 0 64.459 23.019">
  <g id="Component_22_7" data-name="Component 22 – 7" transform="translate(0.004 0.004)">
    <path id="Path_5143" data-name="Path 5143" d="M44.313,67.006a2,2,0,1,1,0,4L37.553,71H33.5a11.5,11.5,0,1,1,0-23h16A11.5,11.5,0,0,1,61,59.5a2,2,0,0,1-4,0A7.5,7.5,0,0,0,49.5,52h-16a7.5,7.5,0,1,0,0,15h4.051Z" transform="translate(-22.007 -47.995)" fill="#158e8d"/>
    <path id="Path_5144" data-name="Path 5144" d="M62.308,49a2,2,0,1,1,0,4l-6.755-.007H51.5a11.5,11.5,0,1,1,0-23h16A11.5,11.5,0,0,1,79,41.494a2,2,0,0,1-4,0,7.5,7.5,0,0,0-7.5-7.5h-16a7.5,7.5,0,0,0,0,15h4.051Z" transform="translate(104.449 52.997) rotate(180)" fill="#158e8d"/>
  </g>
</svg>
