<svg xmlns="http://www.w3.org/2000/svg" width="33" height="33" viewBox="0 0 33 33">
  <g id="Component_23_1" data-name="Component 23 – 1" transform="translate(0.5 0.5)">
    <path id="Path_5147" data-name="Path 5147" d="M40,24A16.047,16.047,0,0,0,24,8a.945.945,0,0,0-1,1,.945.945,0,0,0,1,1A14,14,0,1,1,10,24a.945.945,0,0,0-1-1,1.013,1.013,0,0,0-.9.6A.6.6,0,0,0,8,24H8a16,16,0,0,0,32,0Z" transform="translate(-8 -8)" fill="#158e8d" stroke="#158e8d" stroke-width="1"/>
    <path id="Path_5148" data-name="Path 5148" d="M10.2,19.2a.875.875,0,0,0,.9-.6.985.985,0,1,0-1.3.5C9.9,19.1,10,19.2,10.2,19.2Z" transform="translate(-8 -8)" fill="#158e8d" stroke="#158e8d" stroke-width="1"/>
    <path id="Path_5149" data-name="Path 5149" d="M18.6,11a.756.756,0,0,0,.4-.1,1.012,1.012,0,1,0-1.3-.6A.856.856,0,0,0,18.6,11Z" transform="translate(-8 -8)" fill="#158e8d" stroke="#158e8d" stroke-width="1"/>
    <path id="Path_5150" data-name="Path 5150" d="M14.3,12.5a.99.99,0,0,0-1.4,1.4,1.08,1.08,0,0,0,.7.3.908.908,0,0,0,.7-.3h0A1.2,1.2,0,0,0,14.3,12.5Z" transform="translate(-8 -8)" fill="#158e8d" stroke="#158e8d" stroke-width="1"/>
    <path id="Path_5151" data-name="Path 5151" d="M24,15a.945.945,0,0,0-1,1v8h0a.6.6,0,0,0,.1.4c.1.1.1.2.2.3l4.6,4.6a.967.967,0,0,0,1.4,0,.967.967,0,0,0,0-1.4L25,23.6V16A.945.945,0,0,0,24,15Z" transform="translate(-8 -8)" fill="#158e8d" stroke="#158e8d" stroke-width="1"/>
  </g>
</svg>
