<svg xmlns="http://www.w3.org/2000/svg" width="62" height="64" viewBox="0 0 62 64"><g><g><g><g><g><path fill="#fedd10" d="M56.231 40.153c1.113-3.472 5.716-5.235 5.769-8.321.038-2.914-4.435-4.746-5.563-8.203-1.128-3.457 1.566-7.614-.206-10.134-1.677-2.375-6.367-1.22-9.305-3.35-2.938-2.13-3.193-7.086-6.104-8.057-2.748-.933-5.869 2.765-9.488 2.776-3.62.012-6.734-3.85-9.671-2.952-2.77.883-3.129 5.736-6.04 7.862-2.911 2.127-7.7.857-9.526 3.327-1.734 2.333.808 6.455-.301 9.916C4.687 26.478.042 28.257 0 31.357c-.038 2.91 4.436 4.746 5.564 8.2 1.127 3.453-1.567 7.617.21 10.133 1.672 2.379 6.366 1.224 9.3 3.35 2.934 2.126 3.19 7.086 6.097 8.08 2.747.934 5.868-2.768 9.492-2.78 3.624-.011 6.73 3.851 9.667 2.937 2.77-.864 3.125-5.698 6.051-7.847s7.7-.856 9.526-3.33c1.757-2.345-.785-6.467.324-9.947z"/></g><g><path fill="#029255" d="M58.399 31.989c-.06-3.752 3.856-6.999 2.88-10.02-.922-2.845-5.883-3.15-8.12-6.141-2.236-2.99-.979-7.939-3.535-9.805-2.412-1.76-6.608.918-10.167-.18C35.898 4.746 34.012 0 30.865 0c-2.995 0-4.816 4.642-8.341 5.85C18.999 7.06 14.7 4.322 12.14 6.2c-2.415 1.759-1.17 6.589-3.31 9.648-2.142 3.06-7.222 3.388-8.2 6.405-.923 2.85 2.914 6.02 2.971 9.76.057 3.74-3.856 6.994-2.88 10.015.922 2.849 5.88 3.15 8.116 6.145 2.237 2.994.98 7.939 3.54 9.801 2.412 1.76 6.603-.918 10.166.184C26.106 59.258 27.984 64 31.147 64c2.983 0 4.805-4.638 8.33-5.85C43 56.936 47.302 59.678 49.86 57.8c2.412-1.763 1.17-6.589 3.311-9.648 2.142-3.06 7.24-3.388 8.2-6.41.922-2.844-2.91-6.014-2.972-9.754z"/></g><g><path fill="#01774d" d="M54.28 32.052c-.049-3.178 3.285-5.962 2.447-8.532-.785-2.424-5.007-2.677-6.912-5.231-1.905-2.555-.834-6.758-3.01-8.348-2.054-1.5-5.624.764-8.657-.153-3.032-.918-4.633-4.972-7.327-4.972-2.541 0-4.092 3.95-7.094 4.972-3.003 1.02-6.66-1.293-8.84.298-2.057 1.499-.994 5.61-2.82 8.214-1.824 2.604-6.141 2.891-6.976 5.46-.78 2.437 2.484 5.114 2.534 8.31.05 3.198-3.284 5.959-2.45 8.528.785 2.425 5.007 2.677 6.912 5.232 1.905 2.554.823 6.753 3.01 8.348 2.053 1.499 5.624-.765 8.657.153 3.032.918 4.633 4.971 7.327 4.971 2.54 0 4.092-3.95 7.09-4.971 2.999-1.021 6.664 1.292 8.84-.295 2.054-1.499.998-5.61 2.82-8.218 1.82-2.608 6.134-2.887 6.98-5.472.785-2.41-2.48-5.109-2.53-8.294z"/></g><g opacity=".4"><g opacity=".4"><path d="M42.716 11.354V52.29a6.554 6.554 0 0 0 1.525.042V11.316a5.897 5.897 0 0 0-1.525.038z"/></g><g opacity=".4"><path d="M39.583 11.809v40.065c.255 0 .515.034.762.065V11.732a9.705 9.705 0 0 1-.762.077z"/></g><g opacity=".4"><path d="M48.179 19.377V44.36c.22-.308.475-.588.762-.834V20.199a4.915 4.915 0 0 1-.762-.822z"/></g><g opacity=".4"><path d="M46.616 13.855v36.37c.354-1.192.38-2.71.762-4.099V17.778c-.396-1.285-.469-2.719-.762-3.923z"/></g><g opacity=".4"><path d="M33.324 8.294V55.56c.263-.24.526-.5.793-.765V9.067a16.622 16.622 0 0 0-.793-.773z"/></g><g opacity=".4"><path d="M35.684 10.558v42.689a7.53 7.53 0 0 1 .762-.582V11.11a7.082 7.082 0 0 1-.762-.55z"/></g><g opacity=".4"><path d="M30.988 7.101v49.53h.114a2.663 2.663 0 0 0 1.448-.482V7.675a3.017 3.017 0 0 0-1.562-.574z"/></g><g opacity=".4"><path d="M49.745 20.742v22.18c.248-.161.507-.306.763-.448V21.182c-.252-.15-.511-.283-.763-.44z"/></g><g opacity=".4"><path d="M52.848 34.317v6.918a3.711 3.711 0 0 0 1.567-1.602v-2.046c-.34-1.025-1.041-2.11-1.567-3.27z"/></g><g opacity=".4"><path d="M54.415 25.85v-1.804a3.334 3.334 0 0 0-1.567-1.652v6.883c.537-1.208 1.258-2.34 1.567-3.426z"/></g></g><g><path fill="#fff" d="M20.477 29.58v-1.293h1.277v1.292z"/></g><g><path fill="#fff" d="M18.271 29.58v-1.293h1.277v1.292z"/></g><g><path fill="#fff" d="M24.89 24.256c.358 0 .545-.233.557-.615.152.256.312.382.51.382.359 0 .534-.187.534-.42a2.034 2.034 0 0 0-.023-.222l-.175-.895-.381.076.163.792a.291.291 0 0 1 0 .092c0 .114-.045.175-.152.175a.382.382 0 0 1-.381-.348l-.126-.615-.381.08.126.616a.567.567 0 0 1 0 .141.313.313 0 0 1-.279.337c-.08 0-.14-.07-.175-.2l-.175-.79-.359.08.214.902a.463.463 0 0 0 .503.432z"/></g><g><path fill="#fff" d="M24.55 25.002c1.057-.222 1.613-.348 1.697-.36.335-.08.51-.256.545-.512l-1.788.432a.664.664 0 0 0-.453.44z"/></g><g><path fill="#fff" d="M24.612 27.904V26.75h1.254v1.154z"/></g><g><path fill="#fff" d="M25.633 29.58v-1.155h1.254v1.154z"/></g><g><path fill="#fff" d="M21.222 34.608h-.523c-1.174 0-1.833-.547-1.833-1.64 0-1.094.381-1.714 1.143-1.714.763 0 1.209.582 1.209 1.76zm4.402-1.22c.018.283-.013.566-.091.838a.822.822 0 0 1-.824.382h-2.287v-1.874c0-1.64-.812-2.459-2.412-2.459-1.601 0-2.482 1.11-2.482 2.704 0 1.84 1.186 2.968 3.171 2.968-.581.53-1.35.804-2.134.764-1.601 0-2.634-1.093-2.634-2.784v-2.026h-1.235v2.134a3.792 3.792 0 0 0 1.137 2.749 3.767 3.767 0 0 0 2.766 1.075c1.647 0 2.81-.64 3.473-1.935h2.916c1.288 0 1.94-.7 1.94-2.107V30.65h-1.304z"/></g><g><path fill="#fff" d="M23.625 29.58v-1.155h1.254v1.154z"/></g><g><path fill="#fff" d="M39.107 35.296a1.108 1.108 0 0 1-.93.444c-.8 0-1.311-.688-1.311-1.53a1.701 1.701 0 0 1 .3-1.024c.216-.303.569-.476.939-.463a1.2 1.2 0 0 1 .987.478c.213.31.323.682.312 1.06.015.368-.089.731-.297 1.035zm-7.383-.688H30.58a1.356 1.356 0 0 1-1.242-1.453c-.03-.347.092-.69.332-.94a1.21 1.21 0 0 1 .922-.376c.674 0 1.067.49 1.143 1.178zm11.793-1.22c.022.282-.004.565-.076.838a.822.822 0 0 1-.823.382H40.76v-.336a2.778 2.778 0 0 0-.75-1.947 2.413 2.413 0 0 0-1.88-.765 2.523 2.523 0 0 0-1.906.765 2.682 2.682 0 0 0-.72 1.912v.383h-2.481v-1.35c0-1.53-1-2.62-2.413-2.62a2.496 2.496 0 0 0-1.861.725 2.513 2.513 0 0 0-.739 1.86 2.617 2.617 0 0 0 .704 1.889 2.6 2.6 0 0 0 1.835.822h1.242c-.146.58-.696.961-1.288.895v1.018c1.525 0 2.356-.64 2.53-1.913h3.05a2.429 2.429 0 0 0 2.078 1.014 2.456 2.456 0 0 0 2.085-1.014h2.622c1.3 0 1.952-.7 1.952-2.107v-5.414h-1.304z"/></g><g><path fill="#fff" d="M46.011 35.935v-7.522h1.288v7.522z"/></g></g></g></g></g></svg>