<svg xmlns="http://www.w3.org/2000/svg" width="487" height="348" viewBox="0 0 487 348"><g><g><g><path fill="#f7fbfb" d="M225.3 291H59s50.75-149.457 86.723-211.707C170.733 38.37 202.895 42 202.895 42H381l-79.2 197.3c-12.6 31.2-42.9 51.7-76.5 51.7z"/></g><g><path fill="none" stroke="#fff" stroke-miterlimit="50" stroke-width="2" d="M217.576 201.342h-82.4v0l43.2-106.3c6.5-16.1 22.4-26.7 40-26.7h78.8v0l-46.7 111.4c-5.5 13.1-18.5 21.6-32.9 21.6z"/></g><g><path fill="none" stroke="#fff" stroke-miterlimit="50" stroke-width="2" d="M84.5 265.644H2v0l14.5-37.8c6.5-16.1 22.4-26.7 40-26.7h78.8v0l-18 42.8c-5.5 13.2-18.5 21.7-32.8 21.7z"/></g><g><path fill="none" stroke="#fff" stroke-miterlimit="50" stroke-width="2" d="M243.551 266.689v0h-82.4v0l43.2-106.3c6.5-16.1 22.4-26.7 40-26.7h78.8v0l-46.7 111.4c-5.5 13.1-18.5 21.6-32.9 21.6z"/></g><g><path fill="none" stroke="#fff" stroke-miterlimit="50" stroke-width="2" d="M271.525 332.5v0h-82.4v0l43.2-106.3c6.5-16.1 22.4-26.7 40-26.7h78.8v0l-46.7 111.4c-5.5 13.1-18.5 21.6-32.9 21.6z"/></g><g><path fill="none" stroke="#fff" stroke-miterlimit="50" stroke-width="2" d="M405.4 134v0H323v0l43.2-106.3c6.5-16.1 22.4-26.7 40-26.7H485v0l-46.7 111.4c-5.5 13.1-18.5 21.6-32.9 21.6z"/></g><g><path fill="none" stroke="#fff" stroke-miterlimit="50" stroke-width="2" d="M113.2 347l-40.4-.5v0l29-62c4-9.7 16.2-18 26.8-18h32.7v0L133 333.9c-3.3 7.9-11.1 13.1-19.8 13.1z"/></g><g><path fill="none" stroke="#fff" stroke-miterlimit="50" stroke-width="2" d="M190.6 135v0h-82.4v0l43.2-106.3c6.5-16.1 22.4-26.7 40-26.7h78.8v0l-46.7 111.4C218 126.5 205 135 190.6 135z"/></g><g><path fill="#158e8d" d="M89.6 235.705H43.8l24-60c3.6-9.1 12.4-15 22.2-15h43.8l-26 62.8c-3 7.4-10.2 12.2-18.2 12.2z"/></g><g><g><path fill="#fff" d="M91.666 195.697c-.406-.059-.794.157-.919.525-.038.066-1.875 7.363-10.376 21.02-.229.396-.117.812.279 1.041.33.19.812.117 1.04-.279 8.616-13.855 10.52-21.114 10.606-21.416-.046-.378-.261-.767-.63-.891z"/><path fill="none" stroke="#158e8d" stroke-miterlimit="50" stroke-width=".3" d="M91.666 195.697c-.406-.059-.794.157-.919.525-.038.066-1.875 7.363-10.376 21.02-.229.396-.117.812.279 1.041v0c.33.19.812.117 1.04-.279 8.616-13.855 10.52-21.114 10.606-21.416-.046-.378-.261-.767-.63-.891z"/></g><g><path fill="#fff" d="M111.849 198.99c1.038-8.199-2.952-16.221-10.145-20.374a20.175 20.175 0 0 0-7.663-2.577c-1.492-.158-3.023-.25-4.46-.2-.444.008-.739.366-.731.81.007.445.365.74.81.732 1.37-.089 2.73-.007 4.12.179 2.644.295 4.984 1.118 7.162 2.376a18.937 18.937 0 0 1 9.348 18.858c-.43 3.184-2.54 8.212-3.725 10.872-.124.368-.012.784.317.974l.066.039c.368.124.85.05 1.013-.383 1.603-3.386 3.458-8.123 3.888-11.306z"/><path fill="none" stroke="#158e8d" stroke-miterlimit="50" stroke-width=".3" d="M111.849 198.99c1.038-8.199-2.952-16.221-10.145-20.374a20.175 20.175 0 0 0-7.663-2.577c-1.492-.158-3.023-.25-4.46-.2-.444.008-.739.366-.731.81.007.445.365.74.81.732 1.37-.089 2.73-.007 4.12.179 2.644.295 4.984 1.118 7.162 2.376a18.937 18.937 0 0 1 9.348 18.858c-.43 3.184-2.54 8.212-3.725 10.872-.124.368-.012.784.317.974l.066.039c.368.124.85.05 1.013-.383 1.603-3.386 3.458-8.123 3.888-11.306z"/></g><g><path fill="#fff" d="M85.8 177.968a.737.737 0 0 0 .534-.923.737.737 0 0 0-.924-.534c-5.582 1.44-12.813 5.888-15.953 18.945-.086.302.064.652.394.843l.198.114c.406.059.794-.157.919-.525 2.33-9.828 7.442-15.94 14.833-17.92z"/><path fill="none" stroke="#158e8d" stroke-miterlimit="50" stroke-width=".3" d="M85.8 177.968a.737.737 0 0 0 .534-.923.737.737 0 0 0-.924-.534c-5.582 1.44-12.813 5.888-15.953 18.945-.086.302.064.652.394.843l.198.114c.406.059.794-.157.919-.525 2.33-9.828 7.442-15.94 14.833-17.92z"/></g><g><path fill="#fff" d="M99.946 182.88c-2.007-1.247-4.112-2.022-6.482-2.335-8.03-1.028-15.575 4.117-17.548 11.953-.183.774-.404 1.614-.757 2.378-.65 1.737-2.403 4.772-5.108 9.457-.229.396-.117.812.279 1.041.396.229.812.117 1.04-.279 2.858-4.949 4.496-7.786 5.223-9.655.325-.868.584-1.774.767-2.548 1.79-7.061 8.625-11.738 15.908-10.789 2.068.227 4.068 1.03 5.85 2.059 4.571 2.902 7.554 10.08 6.395 15.745-.977 4.892-5.015 11.886-8.767 18.08-.228.395-.117.811.28 1.04.33.19.812.117 1.04-.279 3.894-6.287 7.942-13.451 8.967-18.579 1.266-6.308-1.922-14.043-7.087-17.29z"/><path fill="none" stroke="#158e8d" stroke-miterlimit="50" stroke-width=".3" d="M99.946 182.88c-2.007-1.247-4.112-2.022-6.482-2.335-8.03-1.028-15.575 4.117-17.548 11.953-.183.774-.404 1.614-.757 2.378-.65 1.737-2.403 4.772-5.108 9.457-.229.396-.117.812.279 1.041.396.229.812.117 1.04-.279 2.858-4.949 4.496-7.786 5.223-9.655.325-.868.584-1.774.767-2.548 1.79-7.061 8.625-11.738 15.908-10.789 2.068.227 4.068 1.03 5.85 2.059 4.571 2.902 7.554 10.08 6.395 15.745-.977 4.892-5.015 11.886-8.767 18.08-.228.395-.117.811.28 1.04.33.19.812.117 1.04-.279 3.894-6.287 7.942-13.451 8.967-18.579 1.266-6.308-1.922-14.043-7.087-17.29z"/></g><g><path fill="#fff" d="M97.132 186.534c-.726-.419-1.49-.772-2.226-1.02-.368-.125-.86.118-.985.486a.79.79 0 0 0 .487.985 9.64 9.64 0 0 1 1.962.87c3.432 1.98 5.352 5.817 4.91 9.784-.589 4.676-4 10.889-10.492 21.218-.228.396-.117.813.28 1.041.33.19.812.117 1.04-.279 6.758-10.791 10.093-16.872 10.702-21.888.54-4.44-1.652-8.873-5.678-11.197z"/><path fill="none" stroke="#158e8d" stroke-miterlimit="50" stroke-width=".3" d="M97.132 186.534c-.726-.419-1.49-.772-2.226-1.02-.368-.125-.86.118-.985.486a.79.79 0 0 0 .487.985 9.64 9.64 0 0 1 1.962.87c3.432 1.98 5.352 5.817 4.91 9.784-.589 4.676-4 10.889-10.492 21.218-.228.396-.117.813.28 1.041v0c.33.19.812.117 1.04-.279 6.758-10.791 10.093-16.872 10.702-21.888.54-4.44-1.652-8.873-5.678-11.197z"/></g><g><path fill="#fff" d="M90.61 186.553c.445-.008.74-.366.666-.848-.007-.444-.365-.739-.847-.665-4.803.394-8.922 4.175-10.287 9.282-.038.066-1.471 5.75-5.853 13.338-.228.396-.117.812.28 1.04.395.23.811.118 1.04-.278 4.496-7.787 5.995-13.432 6.043-13.668 1.23-4.569 4.77-7.804 8.959-8.201z"/><path fill="none" stroke="#158e8d" stroke-miterlimit="50" stroke-width=".3" d="M90.61 186.553c.445-.008.74-.366.666-.848-.007-.444-.365-.739-.847-.665-4.803.394-8.922 4.175-10.287 9.282-.038.066-1.471 5.75-5.853 13.338-.228.396-.117.812.28 1.04.395.23.811.118 1.04-.278 4.496-7.787 5.995-13.432 6.043-13.668 1.23-4.569 4.77-7.804 8.959-8.201z"/></g><g><path fill="#fff" d="M89.95 214.062c.228-.396.117-.812-.28-1.04a.764.764 0 0 0-1.04.278l-1.143 1.98c-.648 1.121-1.344 2.48-1.867 3.233-.228.396-.117.812.279 1.04.33.191.812.118 1.04-.278l1.944-3.365c.447-.622.8-1.386 1.067-1.848z"/><path fill="none" stroke="#158e8d" stroke-miterlimit="50" stroke-width=".3" d="M89.95 214.062c.228-.396.117-.812-.28-1.04v0a.764.764 0 0 0-1.04.278l-1.143 1.98c-.648 1.121-1.344 2.48-1.867 3.233-.228.396-.117.812.279 1.04v0c.33.191.812.118 1.04-.278l1.944-3.365c.447-.622.8-1.386 1.067-1.848z"/></g><g><path fill="#fff" d="M94.465 191.154a6.21 6.21 0 0 0-2.274-.786c-3.183-.43-6.113 1.75-6.79 5.055-.348 1.822-4.524 9.97-9.057 17.822-.229.396-.117.813.279 1.041.395.229.812.117 1.04-.279 4.077-7.06 8.748-16.066 9.221-18.256.493-2.53 2.74-4.137 5.111-3.824a4.52 4.52 0 0 1 1.708.546c1.584.915 2.502 2.677 2.22 4.537-.422 3.628-3.14 9.097-5.294 13.133-.19.33-.051.85.279 1.04a.764.764 0 0 0 1.04-.278c2.297-4.13 5.063-9.835 5.534-13.699.285-2.475-.839-4.795-3.017-6.052z"/><path fill="none" stroke="#158e8d" stroke-miterlimit="50" stroke-width=".3" d="M94.465 191.154a6.21 6.21 0 0 0-2.274-.786c-3.183-.43-6.113 1.75-6.79 5.055-.348 1.822-4.524 9.97-9.057 17.822-.229.396-.117.813.279 1.041.395.229.812.117 1.04-.279 4.077-7.06 8.748-16.066 9.221-18.256.493-2.53 2.74-4.137 5.111-3.824a4.52 4.52 0 0 1 1.708.546c1.584.915 2.502 2.677 2.22 4.537-.422 3.628-3.14 9.097-5.294 13.133-.19.33-.051.85.279 1.04v0a.764.764 0 0 0 1.04-.278c2.297-4.13 5.063-9.835 5.534-13.699.285-2.475-.839-4.795-3.017-6.052z"/></g></g></g></g></svg>